<svg width="28" height="28" viewBox="0 0 28 28" fill="none" xmlns="http://www.w3.org/2000/svg">
<path d="M17 8.89286C17 7.32997 17.5926 5.8311 18.6475 4.72598C19.7024 3.62085 21.1332 3 22.625 3H23C23.1989 3 23.3897 3.08278 23.5303 3.23013C23.671 3.37748 23.75 3.57733 23.75 3.78571V13.2143C23.75 13.3384 23.78 13.7391 23.8385 14.3661C23.894 14.9711 23.9697 15.7356 24.0507 16.5504L24.0605 16.6471C24.263 18.6884 24.5 21.0832 24.5 21.8571C24.5 22.6907 24.1839 23.4901 23.6213 24.0795C23.0587 24.6689 22.2956 25 21.5 25C20.7043 25 19.9413 24.6689 19.3787 24.0795C18.8161 23.4901 18.5 22.6907 18.5 21.8571C18.5 21.1987 18.6702 19.2116 18.8435 17.3487C18.9627 16.0641 19.0865 14.803 19.1667 14H18.875C18.3777 14 17.9008 13.793 17.5492 13.4247C17.1975 13.0563 17 12.5567 17 12.0357V8.89286Z" stroke="#181725" stroke-width="1.5"/>
<mask id="path-2-outside-1_4990_5016" maskUnits="userSpaceOnUse" x="1" y="1" width="13" height="26" fill="black">
<rect fill="white" x="1" y="1" width="13" height="26"/>
<path d="M11.2305 3.60736C11.1903 3.4266 11.0902 3.2666 10.9481 3.15571C10.8061 3.04483 10.6311 2.99022 10.4543 3.00157C10.0568 3.02514 9.7425 3.3685 9.7425 3.79043V8.50471C9.74548 8.71206 9.66972 8.91215 9.53188 9.06097C9.39404 9.2098 9.20542 9.29516 9.0075 9.29829C8.80958 9.30141 8.61859 9.22204 8.47653 9.07764C8.33447 8.93324 8.25299 8.73563 8.25 8.52829V3.78571C8.25 3.57733 8.17098 3.37748 8.03033 3.23013C7.88968 3.08278 7.69891 3 7.5 3C7.30109 3 7.11032 3.08278 6.96967 3.23013C6.82902 3.37748 6.75 3.57733 6.75 3.78571V8.55107C6.73774 8.75352 6.65085 8.94305 6.50769 9.07962C6.36452 9.2162 6.17628 9.28913 5.98274 9.28301C5.78919 9.27689 5.6055 9.1922 5.47045 9.04683C5.3354 8.90145 5.25958 8.70678 5.259 8.50393V3.79121C5.25849 3.59772 5.19031 3.41112 5.06736 3.26672C4.9444 3.12233 4.7752 3.03013 4.59176 3.00759C4.40831 2.98504 4.22334 3.0337 4.07182 3.14436C3.92031 3.25503 3.81275 3.42002 3.7695 3.60814C3.753 3.68043 3 7.03857 3 9.28571C2.99942 9.99594 3.15228 10.6971 3.44712 11.3366C3.74196 11.9762 4.17114 12.5375 4.7025 12.9786C5.0745 13.2881 5.25 13.6252 5.25 13.9073C5.24988 13.9372 5.24813 13.9671 5.24475 13.9969C5.19975 14.3929 5.0145 16.035 4.8405 17.7314C4.6695 19.3994 4.5 21.1971 4.5 21.8571C4.5 22.6907 4.81607 23.4901 5.37868 24.0795C5.94129 24.6689 6.70435 25 7.5 25C8.29565 25 9.05871 24.6689 9.62132 24.0795C10.1839 23.4901 10.5 22.6907 10.5 21.8571C10.5 21.1979 10.3305 19.3994 10.1595 17.7314C9.9855 16.035 9.7995 14.3921 9.7545 13.9969C9.75137 13.9671 9.74987 13.9372 9.75 13.9073C9.75 13.6252 9.9255 13.2881 10.2975 12.9786C10.8289 12.5375 11.258 11.9762 11.5529 11.3366C11.8477 10.6971 12.0006 9.99594 12 9.28571C12 7.037 11.2448 3.67257 11.2305 3.60736ZM10.4205 3.00393L10.4355 3.00314H10.4295L10.4235 3.00393H10.4205Z"/>
</mask>
<path d="M11.2305 3.60736C11.1903 3.4266 11.0902 3.2666 10.9481 3.15571C10.8061 3.04483 10.6311 2.99022 10.4543 3.00157C10.0568 3.02514 9.7425 3.3685 9.7425 3.79043V8.50471C9.74548 8.71206 9.66972 8.91215 9.53188 9.06097C9.39404 9.2098 9.20542 9.29516 9.0075 9.29829C8.80958 9.30141 8.61859 9.22204 8.47653 9.07764C8.33447 8.93324 8.25299 8.73563 8.25 8.52829V3.78571C8.25 3.57733 8.17098 3.37748 8.03033 3.23013C7.88968 3.08278 7.69891 3 7.5 3C7.30109 3 7.11032 3.08278 6.96967 3.23013C6.82902 3.37748 6.75 3.57733 6.75 3.78571V8.55107C6.73774 8.75352 6.65085 8.94305 6.50769 9.07962C6.36452 9.2162 6.17628 9.28913 5.98274 9.28301C5.78919 9.27689 5.6055 9.1922 5.47045 9.04683C5.3354 8.90145 5.25958 8.70678 5.259 8.50393V3.79121C5.25849 3.59772 5.19031 3.41112 5.06736 3.26672C4.9444 3.12233 4.7752 3.03013 4.59176 3.00759C4.40831 2.98504 4.22334 3.0337 4.07182 3.14436C3.92031 3.25503 3.81275 3.42002 3.7695 3.60814C3.753 3.68043 3 7.03857 3 9.28571C2.99942 9.99594 3.15228 10.6971 3.44712 11.3366C3.74196 11.9762 4.17114 12.5375 4.7025 12.9786C5.0745 13.2881 5.25 13.6252 5.25 13.9073C5.24988 13.9372 5.24813 13.9671 5.24475 13.9969C5.19975 14.3929 5.0145 16.035 4.8405 17.7314C4.6695 19.3994 4.5 21.1971 4.5 21.8571C4.5 22.6907 4.81607 23.4901 5.37868 24.0795C5.94129 24.6689 6.70435 25 7.5 25C8.29565 25 9.05871 24.6689 9.62132 24.0795C10.1839 23.4901 10.5 22.6907 10.5 21.8571C10.5 21.1979 10.3305 19.3994 10.1595 17.7314C9.9855 16.035 9.7995 14.3921 9.7545 13.9969C9.75137 13.9671 9.74987 13.9372 9.75 13.9073C9.75 13.6252 9.9255 13.2881 10.2975 12.9786C10.8289 12.5375 11.258 11.9762 11.5529 11.3366C11.8477 10.6971 12.0006 9.99594 12 9.28571C12 7.037 11.2448 3.67257 11.2305 3.60736ZM10.4205 3.00393L10.4355 3.00314H10.4295L10.4235 3.00393H10.4205Z" stroke="#181725" stroke-width="3" mask="url(#path-2-outside-1_4990_5016)"/>
</svg>
