<svg width="20" height="20" viewBox="0 0 20 20" fill="none" xmlns="http://www.w3.org/2000/svg">
<g clip-path="url(#clip0_4990_4408)">
<path d="M10.8349 3.33308L16.6682 9.16641M11.6682 18.3331H18.3349M11.7299 3.23725C12.3507 2.56475 12.6607 2.22891 12.9907 2.03225C13.3803 1.79906 13.8244 1.67267 14.2784 1.66579C14.7323 1.65892 15.1801 1.7718 15.5765 1.99308C15.9124 2.17975 16.2324 2.50641 16.8724 3.15975C17.5124 3.81391 17.8324 4.14141 18.014 4.48391C18.2308 4.89175 18.341 5.34774 18.3345 5.80956C18.3279 6.27138 18.2048 6.72406 17.9765 7.12558C17.7849 7.46225 17.4557 7.77975 16.7965 8.41391L8.96071 15.9614C7.71238 17.1639 7.08821 17.7647 6.30821 18.0697C5.52821 18.3747 4.67071 18.3514 2.95571 18.3072L2.72238 18.3006C2.20071 18.2872 1.93905 18.2806 1.78821 18.1081C1.63571 17.9356 1.65655 17.6697 1.69821 17.1381L1.72071 16.8497C1.83738 15.3531 1.89571 14.6047 2.18738 13.9314C2.47905 13.2581 2.98405 12.7122 3.99238 11.6197L11.7299 3.23725Z" stroke="#6A6E7A" stroke-width="1.5" stroke-linecap="round" stroke-linejoin="round"/>
</g>
<defs>
<clipPath id="clip0_4990_4408">
<rect width="20" height="20" fill="white"/>
</clipPath>
</defs>
</svg>
