<svg width="19" height="20" viewBox="0 0 19 20" fill="none" xmlns="http://www.w3.org/2000/svg">
<path d="M11.9167 11C13.1322 11 14.298 11.4829 15.1576 12.3424C16.0171 13.202 16.5 14.3678 16.5 15.5833V16.5C16.5 16.9862 16.3068 17.4525 15.963 17.7964C15.6192 18.1402 15.1529 18.3333 14.6667 18.3333H1.83333C1.3471 18.3333 0.880787 18.1402 0.536971 17.7964C0.193154 17.4525 0 16.9862 0 16.5V15.5833C0 14.3678 0.482886 13.202 1.34243 12.3424C2.20197 11.4829 3.36776 11 4.58333 11H11.9167ZM15.5833 5.5C15.8264 5.5 16.0596 5.59658 16.2315 5.76849C16.4034 5.94039 16.5 6.17355 16.5 6.41667V7.33333H17.4167C17.6598 7.33333 17.8929 7.42991 18.0648 7.60182C18.2368 7.77373 18.3333 8.00688 18.3333 8.25C18.3333 8.49312 18.2368 8.72627 18.0648 8.89818C17.8929 9.07009 17.6598 9.16667 17.4167 9.16667H16.5V10.0833C16.5 10.3264 16.4034 10.5596 16.2315 10.7315C16.0596 10.9034 15.8264 11 15.5833 11C15.3402 11 15.1071 10.9034 14.9352 10.7315C14.7632 10.5596 14.6667 10.3264 14.6667 10.0833V9.16667H13.75C13.5069 9.16667 13.2737 9.07009 13.1018 8.89818C12.9299 8.72627 12.8333 8.49312 12.8333 8.25C12.8333 8.00688 12.9299 7.77373 13.1018 7.60182C13.2737 7.42991 13.5069 7.33333 13.75 7.33333H14.6667V6.41667C14.6667 6.17355 14.7632 5.94039 14.9352 5.76849C15.1071 5.59658 15.3402 5.5 15.5833 5.5ZM8.25 0C9.46558 0 10.6314 0.482886 11.4909 1.34243C12.3504 2.20197 12.8333 3.36776 12.8333 4.58333C12.8333 5.79891 12.3504 6.9647 11.4909 7.82424C10.6314 8.68378 9.46558 9.16667 8.25 9.16667C7.03442 9.16667 5.86864 8.68378 5.00909 7.82424C4.14955 6.9647 3.66667 5.79891 3.66667 4.58333C3.66667 3.36776 4.14955 2.20197 5.00909 1.34243C5.86864 0.482886 7.03442 0 8.25 0Z" fill="#06844B"/>
</svg>
