<svg width="14" height="14" viewBox="0 0 14 14" fill="none" xmlns="http://www.w3.org/2000/svg">
<g clip-path="url(#clip0_27_45357)">
<path d="M2.33132 8.16542C2.22095 8.1658 2.11274 8.13485 2.01926 8.07617C1.92578 8.01749 1.85087 7.9335 1.80323 7.83394C1.75559 7.73438 1.73717 7.62335 1.75012 7.51374C1.76308 7.40414 1.80686 7.30045 1.8764 7.21474L7.65046 1.26571C7.69377 1.21571 7.75279 1.18193 7.81783 1.1699C7.88288 1.15787 7.95008 1.16832 8.00841 1.19951C8.06673 1.23071 8.11272 1.28081 8.13882 1.34159C8.16492 1.40237 8.16958 1.47022 8.15204 1.534L7.03222 5.04509C6.9992 5.13347 6.98811 5.22853 6.99991 5.32214C7.0117 5.41574 7.04602 5.50508 7.09993 5.5825C7.15384 5.65993 7.22573 5.72312 7.30942 5.76665C7.39312 5.81019 7.48613 5.83277 7.58047 5.83247H11.6631C11.7735 5.83209 11.8817 5.86304 11.9752 5.92171C12.0687 5.98039 12.1436 6.06439 12.1912 6.16395C12.2389 6.2635 12.2573 6.37454 12.2443 6.48414C12.2314 6.59375 12.1876 6.69743 12.1181 6.78314L6.344 12.7322C6.30069 12.7822 6.24167 12.816 6.17662 12.828C6.11158 12.84 6.04438 12.8296 5.98605 12.7984C5.92772 12.7672 5.88174 12.7171 5.85564 12.6563C5.82954 12.5955 5.82487 12.5277 5.84242 12.4639L6.96223 8.95279C6.99525 8.86442 7.00634 8.76935 6.99455 8.67575C6.98276 8.58215 6.94843 8.4928 6.89453 8.41538C6.84062 8.33796 6.76873 8.27477 6.68504 8.23123C6.60134 8.1877 6.50833 8.16511 6.41399 8.16542H2.33132Z" stroke="#0A0A0A" stroke-width="1.16648" stroke-linecap="round" stroke-linejoin="round"/>
</g>
<defs>
<clipPath id="clip0_27_45357">
<rect width="13.9977" height="13.9977" fill="white"/>
</clipPath>
</defs>
</svg>
