<svg width="22" height="22" viewBox="0 0 22 22" fill="none" xmlns="http://www.w3.org/2000/svg">
<path d="M10.5586 2.08966L2.68455 5.46499C2.19243 5.67594 1.91824 6.20334 2.02721 6.7237C2.13618 7.24407 2.59316 7.62379 3.12747 7.62379V7.90507C3.12747 8.37269 3.5036 8.7489 3.97112 8.7489H18.0319C18.4994 8.7489 18.8756 8.37269 18.8756 7.90507V7.62379C19.4099 7.62379 19.8704 7.24758 19.9758 6.7237C20.0813 6.19982 19.8071 5.67242 19.3186 5.46499L11.4444 2.08966C11.1632 1.97011 10.8398 1.97011 10.5586 2.08966ZM6.50207 9.87401H4.25234V16.7759C4.23124 16.7863 4.21015 16.8005 4.18906 16.8146L2.50176 17.9397C2.09048 18.2139 1.90418 18.7272 2.0483 19.2018C2.19243 19.6765 2.63183 20 3.12747 20H18.8756C19.3712 20 19.8071 19.6765 19.9513 19.2018C20.0954 18.7272 19.9126 18.2139 19.4977 17.9397L17.8105 16.8146C17.7894 16.8005 17.7683 16.7899 17.7472 16.7759V9.87401H15.501V16.6247H14.0949V9.87401H11.8452V16.6247H10.1579V9.87401H7.90815V16.6247H6.50207V9.87401ZM11.0015 4.24846C11.2999 4.24846 11.586 4.367 11.7969 4.578C12.0079 4.789 12.1264 5.07517 12.1264 5.37357C12.1264 5.67197 12.0079 5.95814 11.7969 6.16915C11.586 6.38014 11.2999 6.49868 11.0015 6.49868C10.7032 6.49868 10.4171 6.38014 10.2061 6.16915C9.99518 5.95814 9.87666 5.67197 9.87666 5.37357C9.87666 5.07517 9.99518 4.789 10.2061 4.578C10.4171 4.367 10.7032 4.24846 11.0015 4.24846Z" fill="#181725"/>
</svg>
