<svg width="30" height="30" viewBox="0 0 30 30" fill="none" xmlns="http://www.w3.org/2000/svg">
<path d="M14.995 8.75H15.0063M5 12.5V23.125M10 12.5V23.125M20 12.5V23.125M25 12.5V23.125M2.5 10.7125C2.5 9.21625 3.1025 8.3 4.35 7.605L9.4875 4.74625C12.1788 3.25 13.525 2.5 15 2.5C16.475 2.5 17.8213 3.25 20.5125 4.74625L25.65 7.605C26.8963 8.3 27.5 9.21625 27.5 10.7125C27.5 11.1175 27.5 11.3213 27.4563 11.4875C27.2238 12.3625 26.43 12.5013 25.6638 12.5013H4.33625C3.57 12.5013 2.7775 12.3638 2.54375 11.4875C2.5 11.32 2.5 11.1175 2.5 10.7125ZM23.75 23.125H6.25C5.25544 23.125 4.30161 23.5201 3.59835 24.2234C2.89509 24.9266 2.5 25.8804 2.5 26.875C2.5 27.0408 2.56585 27.1997 2.68306 27.3169C2.80027 27.4342 2.95924 27.5 3.125 27.5H26.875C27.0408 27.5 27.1997 27.4342 27.3169 27.3169C27.4342 27.1997 27.5 27.0408 27.5 26.875C27.5 25.8804 27.1049 24.9266 26.4017 24.2234C25.6984 23.5201 24.7446 23.125 23.75 23.125Z" stroke="#06844B" stroke-width="1.5" stroke-linecap="round" stroke-linejoin="round"/>
</svg>
