<svg width="25" height="19" viewBox="0 0 25 19" fill="none" xmlns="http://www.w3.org/2000/svg">
<g clip-path="url(#clip0_49_1130)">
<path d="M4.44118 18.9051V17.6476C4.44118 17.1654 4.14769 16.8511 3.64463 16.8511C3.39315 16.8511 3.12067 16.9349 2.93201 17.2074C2.78536 16.9769 2.57579 16.8511 2.2614 16.8511C2.05173 16.8511 1.84226 16.9139 1.67451 17.1445V16.893H1.23438V18.9051H1.67451V17.7942C1.67451 17.438 1.86317 17.2703 2.15666 17.2703C2.44996 17.2703 2.5968 17.4589 2.5968 17.7942V18.9051H3.03694V17.7942C3.03694 17.438 3.24641 17.2703 3.51889 17.2703C3.81238 17.2703 3.95903 17.4589 3.95903 17.7942V18.9051H4.44118ZM10.9593 16.893H10.2468V16.2852H9.80667V16.893H9.40844V17.2912H9.80657V18.2134C9.80657 18.6746 9.99523 18.947 10.4983 18.947C10.6869 18.947 10.8964 18.8842 11.0433 18.8003L10.9174 18.423C10.7917 18.5068 10.645 18.5278 10.5402 18.5278C10.3306 18.5278 10.2468 18.4021 10.2468 18.1924V17.2912H10.9593V16.893ZM14.6901 16.851C14.4386 16.851 14.271 16.9769 14.1661 17.1445V16.893H13.726V18.9051H14.1661V17.7733C14.1661 17.438 14.3128 17.2493 14.5853 17.2493C14.6691 17.2493 14.7739 17.2704 14.8578 17.2913L14.9835 16.8721C14.8997 16.8511 14.7739 16.8511 14.6901 16.8511M9.05213 17.0608C8.84247 16.914 8.54907 16.8512 8.23468 16.8512C7.73172 16.8512 7.39641 17.1027 7.39641 17.5009C7.39641 17.8363 7.64789 18.0249 8.08803 18.0878L8.29759 18.1088C8.52816 18.1506 8.65391 18.2135 8.65391 18.3184C8.65391 18.465 8.48625 18.5699 8.19276 18.5699C7.89927 18.5699 7.6688 18.465 7.52205 18.3603L7.31249 18.6956C7.54306 18.8633 7.85746 18.9471 8.17176 18.9471C8.75864 18.9471 9.09404 18.6747 9.09404 18.2974C9.09404 17.9411 8.82156 17.7524 8.40233 17.6896L8.19276 17.6686C8.0041 17.6476 7.85745 17.6058 7.85745 17.48C7.85745 17.3333 8.0041 17.2494 8.23468 17.2494C8.48625 17.2494 8.73773 17.3542 8.86347 17.4171L9.05213 17.0608ZM20.7473 16.8512C20.4957 16.8512 20.3281 16.977 20.2232 17.1446V16.8931H19.7831V18.9052H20.2232V17.7734C20.2232 17.4381 20.37 17.2494 20.6424 17.2494C20.7263 17.2494 20.8311 17.2704 20.915 17.2914L21.0407 16.8722C20.9569 16.8512 20.8311 16.8512 20.7473 16.8512ZM15.1302 17.8991C15.1302 18.5069 15.5494 18.9471 16.1992 18.9471C16.4926 18.9471 16.7021 18.8843 16.9117 18.7166L16.7021 18.3603C16.5345 18.486 16.3668 18.5489 16.1782 18.5489C15.8219 18.5489 15.5704 18.2974 15.5704 17.8991C15.5704 17.5219 15.8219 17.2704 16.1782 17.2494C16.3668 17.2494 16.5345 17.3123 16.7021 17.4381L16.9117 17.0818C16.7021 16.914 16.4926 16.8512 16.1992 16.8512C15.5494 16.8512 15.1302 17.2914 15.1302 17.8991ZM19.1963 17.8991V16.8931H18.7562V17.1446C18.6094 16.956 18.3999 16.8512 18.1274 16.8512C17.5615 16.8512 17.1214 17.2914 17.1214 17.8991C17.1214 18.5069 17.5615 18.9471 18.1274 18.9471C18.4208 18.9471 18.6304 18.8423 18.7562 18.6537V18.9052H19.1963V17.8991ZM17.5824 17.8991C17.5824 17.5428 17.813 17.2494 18.1902 17.2494C18.5465 17.2494 18.7981 17.5219 18.7981 17.8991C18.7981 18.2555 18.5465 18.5489 18.1902 18.5489C17.813 18.5278 17.5824 18.2555 17.5824 17.8991ZM12.3218 16.8512C11.7349 16.8512 11.3156 17.2704 11.3156 17.8991C11.3156 18.5279 11.7348 18.9471 12.3427 18.9471C12.6361 18.9471 12.9295 18.8633 13.1601 18.6747L12.9505 18.3603C12.7828 18.486 12.5732 18.5699 12.3637 18.5699C12.0912 18.5699 11.8187 18.4441 11.7558 18.0877H13.2439V17.9202C13.265 17.2704 12.8877 16.8512 12.3218 16.8512ZM12.3217 17.2284C12.5941 17.2284 12.7828 17.3962 12.8246 17.7106H11.7767C11.8186 17.4381 12.0073 17.2284 12.3217 17.2284ZM23.2413 17.8991V16.0967H22.8012V17.1446C22.6544 16.956 22.4448 16.8512 22.1724 16.8512C21.6065 16.8512 21.1663 17.2914 21.1663 17.8991C21.1663 18.5069 21.6065 18.9471 22.1724 18.9471C22.4658 18.9471 22.6754 18.8423 22.8012 18.6537V18.9052H23.2413V17.8991ZM21.6275 17.8991C21.6275 17.5428 21.858 17.2494 22.2353 17.2494C22.5916 17.2494 22.8431 17.5219 22.8431 17.8991C22.8431 18.2555 22.5916 18.5489 22.2353 18.5489C21.858 18.5278 21.6275 18.2555 21.6275 17.8991ZM6.91417 17.8991V16.8931H6.47403V17.1446C6.32728 16.956 6.11771 16.8512 5.84523 16.8512C5.27935 16.8512 4.83921 17.2914 4.83921 17.8991C4.83921 18.5069 5.27935 18.9471 5.84523 18.9471C6.13872 18.9471 6.34829 18.8423 6.47403 18.6537V18.9052H6.91417V17.8991ZM5.27935 17.8991C5.27935 17.5428 5.50992 17.2494 5.88714 17.2494C6.24346 17.2494 6.49503 17.5219 6.49503 17.8991C6.49503 18.2555 6.24346 18.5489 5.88714 18.5489C5.50992 18.5278 5.27935 18.2555 5.27935 17.8991Z" fill="black"/>
<path d="M8.91016 1.61377H15.5122V13.4766H8.91016V1.61377Z" fill="#FF5F00"/>
<path d="M9.32683 7.54527C9.32683 5.13501 10.4586 2.99714 12.1981 1.61381C10.9197 0.607792 9.30592 0 7.54537 0C3.37436 0 0 3.37436 0 7.54527C0 11.7162 3.37436 15.0905 7.54527 15.0905C9.30583 15.0905 10.9196 14.4828 12.1981 13.4766C10.4586 12.1143 9.32683 9.95553 9.32683 7.54527Z" fill="#EB001B"/>
<path d="M24.4169 7.54527C24.4169 11.7161 21.0425 15.0905 16.8716 15.0905C15.1111 15.0905 13.4973 14.4828 12.2188 13.4766C13.9793 12.0934 15.0902 9.95553 15.0902 7.54527C15.0902 5.13501 13.9583 2.99714 12.2188 1.61381C13.4972 0.607792 15.1111 0 16.8716 0C21.0425 0 24.4169 3.39537 24.4169 7.54527Z" fill="#F79E1B"/>
</g>
<defs>
<clipPath id="clip0_49_1130">
<rect width="24.4425" height="18.9995" fill="white"/>
</clipPath>
</defs>
</svg>
