<svg width="26" height="26" viewBox="0 0 26 26" fill="none" xmlns="http://www.w3.org/2000/svg">
<path d="M14.9666 18.1554C15.2074 18.266 15.4788 18.2913 15.7359 18.227C15.9931 18.1628 16.2206 18.0129 16.3812 17.802L16.7952 17.2597C17.0125 16.97 17.2942 16.7349 17.618 16.573C17.9419 16.4111 18.299 16.3268 18.6611 16.3268H22.1598C22.7784 16.3268 23.3716 16.5725 23.809 17.0099C24.2464 17.4473 24.4922 18.0406 24.4922 18.6592V22.1578C24.4922 22.7764 24.2464 23.3697 23.809 23.8071C23.3716 24.2445 22.7784 24.4902 22.1598 24.4902C16.5924 24.4902 11.253 22.2786 7.31632 18.3419C3.3796 14.4052 1.16797 9.06581 1.16797 3.49844C1.16797 2.87984 1.41371 2.28658 1.85112 1.84917C2.28853 1.41175 2.88179 1.16602 3.50039 1.16602H6.99902C7.61762 1.16602 8.21088 1.41175 8.64829 1.84917C9.08571 2.28658 9.33144 2.87984 9.33144 3.49844V6.99707C9.33144 7.35917 9.24714 7.71629 9.0852 8.04016C8.92327 8.36403 8.68815 8.64575 8.39848 8.86301L7.85269 9.27235C7.63859 9.43582 7.48769 9.66837 7.42561 9.9305C7.36354 10.1926 7.39412 10.4682 7.51216 10.7103C9.10599 13.9475 11.7273 16.5656 14.9666 18.1554Z" stroke="#9810FA" stroke-width="2.33242" stroke-linecap="round" stroke-linejoin="round"/>
</svg>
