<svg width="18" height="14" viewBox="0 0 18 14" fill="none" xmlns="http://www.w3.org/2000/svg">
<path d="M0 11.5625C0 12.1427 0.230468 12.6991 0.640704 13.1093C1.05094 13.5195 1.60734 13.75 2.1875 13.75H15.3125C15.8927 13.75 16.4491 13.5195 16.8593 13.1093C17.2695 12.6991 17.5 12.1427 17.5 11.5625V5.54688H0V11.5625ZM2.57812 8.59375C2.57812 8.28295 2.70159 7.98488 2.92136 7.76511C3.14113 7.54534 3.4392 7.42188 3.75 7.42188H5.625C5.9358 7.42188 6.23387 7.54534 6.45364 7.76511C6.67341 7.98488 6.79688 8.28295 6.79688 8.59375V9.375C6.79688 9.6858 6.67341 9.98387 6.45364 10.2036C6.23387 10.4234 5.9358 10.5469 5.625 10.5469H3.75C3.4392 10.5469 3.14113 10.4234 2.92136 10.2036C2.70159 9.98387 2.57812 9.6858 2.57812 9.375V8.59375ZM15.3125 0H2.1875C1.60734 0 1.05094 0.230468 0.640704 0.640704C0.230468 1.05094 0 1.60734 0 2.1875V3.20312H17.5V2.1875C17.5 1.60734 17.2695 1.05094 16.8593 0.640704C16.4491 0.230468 15.8927 0 15.3125 0Z" fill="#155DFC"/>
</svg>
