<svg width="28" height="28" viewBox="0 0 28 28" fill="none" xmlns="http://www.w3.org/2000/svg">
<path d="M2.33398 14C2.33398 9.60049 2.33398 7.40016 3.70132 6.03399C5.06865 4.66782 7.26782 4.66666 11.6673 4.66666H16.334C20.7335 4.66666 22.9338 4.66666 24.3 6.03399C25.6662 7.40132 25.6673 9.60049 25.6673 14C25.6673 18.3995 25.6673 20.5998 24.3 21.966C22.9327 23.3322 20.7335 23.3333 16.334 23.3333H11.6673C7.26782 23.3333 5.06748 23.3333 3.70132 21.966C2.33515 20.5987 2.33398 18.3995 2.33398 14Z" stroke="#181725" stroke-width="1.5"/>
<path d="M11.6673 19.25H7.00065M9.33398 15.75H7.00065M2.33398 11.6667H25.6673" stroke="#181725" stroke-width="1.5" stroke-linecap="round"/>
<path d="M16.334 17.5C16.334 16.3998 16.334 15.8503 16.6758 15.5085C17.0177 15.1667 17.5672 15.1667 18.6673 15.1667C19.7675 15.1667 20.317 15.1667 20.6588 15.5085C21.0007 15.8503 21.0007 16.3998 21.0007 17.5C21.0007 18.6002 21.0007 19.1497 20.6588 19.4915C20.317 19.8333 19.7675 19.8333 18.6673 19.8333C17.5672 19.8333 17.0177 19.8333 16.6758 19.4915C16.334 19.1497 16.334 18.6002 16.334 17.5Z" stroke="#181725" stroke-width="1.5"/>
</svg>
