<svg width="37" height="33" viewBox="0 0 37 33" fill="none" xmlns="http://www.w3.org/2000/svg">
<g clip-path="url(#clip0_228_251504)">
<path d="M13.4114 25.0681C13.7335 25.0681 13.9946 24.807 13.9946 24.4849C13.9946 24.1628 13.7335 23.9017 13.4114 23.9017C13.0892 23.9017 12.8281 24.1628 12.8281 24.4849C12.8281 24.807 13.0892 25.0681 13.4114 25.0681Z" stroke="#0A0A0A" stroke-width="1.16648" stroke-linecap="round" stroke-linejoin="round"/>
<path d="M19.8293 25.0681C20.1514 25.0681 20.4126 24.807 20.4126 24.4849C20.4126 24.1628 20.1514 23.9017 19.8293 23.9017C19.5072 23.9017 19.2461 24.1628 19.2461 24.4849C19.2461 24.807 19.5072 25.0681 19.8293 25.0681Z" stroke="#0A0A0A" stroke-width="1.16648" stroke-linecap="round" stroke-linejoin="round"/>
<path d="M9.94141 13.4325H11.1079L12.6593 20.6763C12.7162 20.9416 12.8638 21.1788 13.0767 21.347C13.2896 21.5152 13.5545 21.6039 13.8258 21.5978H19.5298C19.7953 21.5974 20.0527 21.5064 20.2595 21.3399C20.4663 21.1735 20.6101 20.9414 20.6672 20.6821L21.6295 16.3487H11.7319" stroke="#0A0A0A" stroke-width="1.16648" stroke-linecap="round" stroke-linejoin="round"/>
</g>
<path d="M17.4883 6.75C17.4883 3.02207 20.5104 0 24.2383 0H28.2379C31.9658 0 34.9879 3.02208 34.9879 6.75V10.7496C34.9879 14.4776 31.9658 17.4996 28.2379 17.4996H24.2383C20.5104 17.4996 17.4883 14.4775 17.4883 10.7496V6.75Z" fill="#FB2C36"/>
<path d="M26.2476 12.8542C25.7355 12.8542 25.2781 12.766 24.8754 12.5895C24.4752 12.413 24.1583 12.1681 23.9246 11.8549C23.6934 11.5392 23.5692 11.1738 23.5518 10.7587H24.7226C24.7375 10.9849 24.8133 11.1813 24.95 11.3478C25.0892 11.5119 25.2707 11.6387 25.4944 11.7282C25.7181 11.8176 25.9667 11.8624 26.2401 11.8624C26.5409 11.8624 26.8069 11.8102 27.0381 11.7058C27.2718 11.6014 27.4545 11.456 27.5862 11.2695C27.718 11.0806 27.7838 10.8631 27.7838 10.617C27.7838 10.361 27.718 10.136 27.5862 9.94211C27.4569 9.74573 27.2668 9.59161 27.0157 9.47975C26.7671 9.36789 26.4664 9.31196 26.1134 9.31196H25.4683V8.37233H26.1134C26.3968 8.37233 26.6453 8.32137 26.8591 8.21945C27.0754 8.11754 27.2444 7.97585 27.3662 7.79438C27.488 7.61043 27.5489 7.39541 27.5489 7.14932C27.5489 6.91317 27.4955 6.70809 27.3886 6.53409C27.2842 6.35759 27.135 6.21963 26.9411 6.1202C26.7497 6.02077 26.5235 5.97105 26.2625 5.97105C26.0139 5.97105 25.7815 6.01704 25.5653 6.10901C25.3515 6.1985 25.1775 6.32776 25.0432 6.4968C24.909 6.66335 24.8369 6.86345 24.827 7.09712H23.7121C23.7245 6.68448 23.8463 6.32155 24.0775 6.00834C24.3112 5.69513 24.6194 5.45028 25.0022 5.27379C25.385 5.0973 25.8101 5.00905 26.2774 5.00905C26.7671 5.00905 27.1897 5.10475 27.5452 5.29616C27.9031 5.48508 28.1791 5.73739 28.373 6.05308C28.5693 6.36878 28.6663 6.71431 28.6638 7.08966C28.6663 7.51722 28.547 7.88014 28.3058 8.17844C28.0672 8.47673 27.749 8.67684 27.3513 8.77876V8.83842C27.8584 8.91548 28.2512 9.11683 28.5296 9.44247C28.8105 9.76811 28.9497 10.172 28.9472 10.6543C28.9497 11.0744 28.8328 11.451 28.5967 11.7841C28.363 12.1172 28.0436 12.3794 27.6384 12.5708C27.2332 12.7598 26.7696 12.8542 26.2476 12.8542Z" fill="white"/>
<defs>
<clipPath id="clip0_228_251504">
<rect width="13.9977" height="13.9977" fill="white" transform="translate(8.74609 12.2369)"/>
</clipPath>
</defs>
</svg>
