<svg width="22" height="22" viewBox="0 0 22 22" fill="none" xmlns="http://www.w3.org/2000/svg">
<path d="M16.1357 0C19.8768 0 21.989 2.12218 22 5.86328V16.1367C22 19.8767 19.8768 22 16.1357 22H5.86328C2.12218 22 0 19.8767 0 16.1367V5.86328C0 2.12218 2.12218 0 5.86328 0H16.1357ZM11.5527 4.54492C11.2436 4.35792 10.8691 4.35792 10.5732 4.54492C10.2756 4.73081 10.1119 5.07242 10.1436 5.41309V16.6221C10.1997 17.0951 10.5946 17.4473 11.0566 17.4473C11.5307 17.4472 11.9257 17.0951 11.9697 16.6221V5.41309C12.0135 5.07232 11.8495 4.73077 11.5527 4.54492ZM6.41211 8.15137C6.11511 7.96437 5.73926 7.96437 5.44336 8.15137C5.14545 8.33841 4.98166 8.67852 5.01465 9.02051V16.6211C5.05755 17.0941 5.45376 17.4463 5.92676 17.4463C6.40084 17.4463 6.79585 17.0941 6.83984 16.6211V9.02051C6.87394 8.67847 6.7079 8.33839 6.41211 8.15137ZM16.6016 12.1436C16.3057 11.9566 15.931 11.9566 15.623 12.1436C15.3253 12.3305 15.1613 12.6589 15.2051 13.0117V16.6201C15.2491 17.0931 15.6441 17.4452 16.1182 17.4453C16.5802 17.4453 16.9751 17.0931 17.0312 16.6201V13.0117C17.063 12.659 16.8993 12.3305 16.6016 12.1436Z" fill="#6A6E7A"/>
</svg>
