<svg width="9" height="17" viewBox="0 0 9 17" fill="none" xmlns="http://www.w3.org/2000/svg">
<path d="M8.83895 10.8369C8.83441 11.3879 8.68605 11.9281 8.40855 12.404C8.13105 12.88 7.73405 13.2753 7.25684 13.5506C6.72495 13.8873 6.13596 14.1238 5.51895 14.2485V15.4611C5.52347 15.6063 5.49879 15.7509 5.44637 15.8863C5.39394 16.0217 5.31484 16.1453 5.21377 16.2495C5.11269 16.3538 4.9917 16.4367 4.85796 16.4933C4.72423 16.55 4.58049 16.5791 4.43526 16.5791C4.29004 16.5791 4.1463 16.55 4.01256 16.4933C3.87883 16.4367 3.75784 16.3538 3.65676 16.2495C3.55568 16.1453 3.47659 16.0217 3.42416 15.8863C3.37174 15.7509 3.34705 15.6063 3.35158 15.4611V14.2601L3.28526 14.2485C2.90077 14.1749 2.52529 14.0602 2.16526 13.9064C1.63042 13.6849 1.15699 13.3375 0.785263 12.8938C0.692163 12.7862 0.621157 12.6614 0.576299 12.5264C0.531442 12.3914 0.513611 12.2489 0.523826 12.1071C0.53404 11.9652 0.5721 11.8267 0.635831 11.6995C0.699562 11.5724 0.787718 11.459 0.895263 11.3659C1.00281 11.2728 1.12764 11.2018 1.26263 11.1569C1.39761 11.1121 1.54011 11.0942 1.68199 11.1044C1.82387 11.1147 1.96235 11.1527 2.08952 11.2165C2.21669 11.2802 2.33006 11.3683 2.42316 11.4759C2.56977 11.6567 2.75742 11.8 2.97053 11.8938L2.97263 11.8948C3.19202 11.9907 3.42056 12.064 3.65474 12.1138H3.65684C3.89832 12.1604 4.14279 12.19 4.38842 12.2022C4.98354 12.2014 5.56734 12.0395 6.0779 11.7338C6.60421 11.3917 6.67158 11.0759 6.67158 10.838C6.66967 10.5865 6.57824 10.3439 6.41369 10.1538C6.24872 9.9673 6.05288 9.81063 5.83474 9.69062C5.61379 9.57624 5.37881 9.4913 5.13579 9.43799C4.9108 9.39085 4.68146 9.36757 4.45158 9.36852C4.09616 9.37012 3.74124 9.34196 3.39053 9.28431C2.91981 9.20656 2.46325 9.05934 2.03579 8.84746C1.54103 8.59929 1.10471 8.24873 0.75579 7.81904C0.275439 7.24039 0.00859995 6.5142 0 5.7622C0.00145553 5.27451 0.117181 4.79394 0.337895 4.35904C0.641087 3.77905 1.09721 3.29308 1.65684 2.95378C2.17795 2.63298 2.75227 2.40803 3.35263 2.28957V1.11799C3.34811 0.972836 3.37279 0.828253 3.42521 0.692822C3.47764 0.55739 3.55674 0.433871 3.65781 0.329595C3.75889 0.225319 3.87988 0.142411 4.01362 0.0857932C4.14735 0.029175 4.29109 0 4.43632 0C4.58154 0 4.72528 0.029175 4.85902 0.0857932C4.99275 0.142411 5.11374 0.225319 5.21482 0.329595C5.3159 0.433871 5.39499 0.55739 5.44742 0.692822C5.49984 0.828253 5.52453 0.972836 5.52 1.11799V2.3222L5.58632 2.33694H5.58842C5.97805 2.42638 6.3573 2.55621 6.72 2.72431C7.17253 2.92855 7.58496 3.21195 7.9379 3.56115C8.12835 3.76658 8.2319 4.03775 8.22684 4.31784C8.22179 4.59792 8.10852 4.86518 7.91078 5.06361C7.71304 5.26203 7.44617 5.37622 7.1661 5.38223C6.88603 5.38825 6.6145 5.28563 6.40842 5.09588C6.24056 4.93101 6.04493 4.79702 5.83053 4.7001C5.60469 4.59448 5.36875 4.51196 5.12632 4.45378L5.05684 4.43904C4.86435 4.38904 4.66778 4.35628 4.46947 4.34115C3.88792 4.33722 3.31614 4.49071 2.81474 4.78536C2.62983 4.87605 2.4724 5.01434 2.35863 5.18602C2.24486 5.3577 2.17884 5.55657 2.16737 5.7622C2.17847 6.01519 2.27325 6.25733 2.43684 6.45062L2.43895 6.45378C2.59411 6.64205 2.78657 6.79617 3.00421 6.90641L3.00632 6.90852C3.2403 7.02266 3.48954 7.10243 3.74632 7.14536H3.74842C3.98084 7.18353 4.21605 7.20219 4.45158 7.20115C4.83608 7.19988 5.21963 7.23939 5.59579 7.31904L5.59895 7.3201C6.03163 7.41512 6.44995 7.5666 6.84316 7.77062L6.84737 7.77273C7.30013 8.01697 7.70577 8.33991 8.04526 8.72641L8.04737 8.72852C8.55754 9.31253 8.83804 10.0615 8.83895 10.8369Z" fill="#05733F"/>
</svg>
