<svg width="9" height="10" viewBox="0 0 9 10" fill="none" xmlns="http://www.w3.org/2000/svg">
<path d="M1.93549 9.43255C1.93549 9.32639 1.91508 9.2733 1.87424 9.2733L1.59249 9.40805C1.59249 9.35089 1.55983 9.31005 1.49449 9.28555L1.39649 9.2733C1.33116 9.2733 1.24949 9.30189 1.15149 9.35905C1.13516 9.31822 1.11474 9.27739 1.09024 9.23655C1.06574 9.19572 1.04533 9.15897 1.02899 9.1263C0.922828 8.92214 0.816661 8.69755 0.710494 8.45255C0.612494 8.19939 0.518578 7.95847 0.428744 7.7298C0.347078 7.50114 0.281744 7.32147 0.232744 7.1908C0.200077 7.08464 0.163327 6.92539 0.122494 6.71305C0.0816608 6.50072 0.0408275 6.23122 -5.82542e-06 5.90455C0.0898275 5.96172 0.159244 5.9903 0.208244 5.9903C0.265411 5.9903 0.318494 5.90455 0.367494 5.73305C0.391994 5.76572 0.436911 5.78205 0.502244 5.78205C0.551244 5.78205 0.587994 5.76572 0.612494 5.73305L0.808494 5.43905L1.02899 5.51255H1.04124C1.05758 5.51255 1.07391 5.50439 1.09024 5.48805C1.10658 5.47172 1.13108 5.45539 1.16374 5.43905C1.22908 5.39822 1.27808 5.3778 1.31074 5.3778L1.34749 5.39005C1.55166 5.48805 1.68233 5.66772 1.73949 5.92905C1.88649 6.54972 2.03349 6.86005 2.18049 6.86005C2.32749 6.86005 2.49899 6.70489 2.69499 6.39455C2.79299 6.23939 2.89099 6.05972 2.98899 5.85555C3.09516 5.65139 3.20133 5.42272 3.30749 5.16955C3.32383 5.26755 3.34016 5.31655 3.35649 5.31655C3.39733 5.31655 3.46674 5.21447 3.56474 5.0103C3.67091 4.80614 3.83833 4.52439 4.06699 4.16505C4.19766 3.94455 4.36099 3.69547 4.55699 3.4178C4.76116 3.14014 4.97758 2.8543 5.20624 2.5603C5.43491 2.2663 5.65541 1.98864 5.86774 1.7273C6.08824 1.46597 6.28424 1.24139 6.45574 1.05355C6.62724 0.865721 6.75383 0.743221 6.83549 0.686054C7.14583 0.473721 7.39083 0.269554 7.57049 0.0735543C7.56233 0.130721 7.55008 0.183804 7.53374 0.232804C7.52558 0.273638 7.52149 0.302221 7.52149 0.318554C7.52149 0.351221 7.53783 0.367554 7.57049 0.367554L7.91349 0.196054V0.245054C7.91349 0.310388 7.92983 0.343055 7.96249 0.343055C7.98699 0.343055 8.03599 0.306305 8.10949 0.232804C8.18299 0.159304 8.22383 0.106221 8.23199 0.0735543L8.20749 0.245054L8.62399 5.45532e-05L8.52599 0.220555C8.65666 0.130721 8.75058 0.0858042 8.80774 0.0858042C8.84041 0.0858042 8.86491 0.106221 8.88124 0.147054C8.89758 0.179721 8.90574 0.212388 8.90574 0.245054C8.90574 0.294054 8.88533 0.351221 8.84449 0.416554C8.80366 0.481888 8.75058 0.559471 8.68524 0.649304C8.63624 0.714638 8.55458 0.812638 8.44024 0.943304C8.33408 1.0658 8.17074 1.24955 7.95024 1.49455C7.72974 1.73139 7.43574 2.06214 7.06824 2.4868C6.97024 2.59297 6.81916 2.7808 6.61499 3.0503C6.41083 3.31164 6.17808 3.61789 5.91674 3.96905C5.66358 4.31205 5.41041 4.65914 5.15724 5.0103C4.90408 5.36147 4.67949 5.67997 4.48349 5.9658C4.28749 6.24347 4.14866 6.45172 4.06699 6.59055L3.30749 7.8768C3.14416 8.15447 3.00941 8.38314 2.90324 8.5628C2.79708 8.7343 2.71541 8.85272 2.65824 8.91805C2.53574 9.06505 2.40099 9.19572 2.25399 9.31005L2.14374 9.2488L2.04574 9.31005L1.93549 9.43255Z" fill="#0A0A0A"/>
</svg>
