<svg width="28" height="28" viewBox="0 0 28 28" fill="none" xmlns="http://www.w3.org/2000/svg">
<path fill-rule="evenodd" clip-rule="evenodd" d="M14 28C17.713 28 21.274 26.525 23.8995 23.8995C26.525 21.274 28 17.713 28 14C28 10.287 26.525 6.72601 23.8995 4.10051C21.274 1.475 17.713 0 14 0C10.287 0 6.72601 1.475 4.10051 4.10051C1.475 6.72601 0 10.287 0 14C0 17.713 1.475 21.274 4.10051 23.8995C6.72601 26.525 10.287 28 14 28ZM20.4872 11.7372C20.806 11.4072 20.9824 10.9651 20.9784 10.5063C20.9744 10.0475 20.7904 9.60853 20.4659 9.28407C20.1415 8.9596 19.7025 8.77556 19.2437 8.77157C18.7849 8.76758 18.3428 8.94397 18.0128 9.26275L12.25 15.0255L9.98725 12.7628C9.6572 12.444 9.21514 12.2676 8.7563 12.2716C8.29745 12.2756 7.85853 12.4596 7.53407 12.7841C7.2096 13.1085 7.02556 13.5475 7.02157 14.0063C7.01758 14.4651 7.19397 14.9072 7.51275 15.2372L11.0128 18.7372C11.3409 19.0653 11.786 19.2496 12.25 19.2496C12.714 19.2496 13.1591 19.0653 13.4872 18.7372L20.4872 11.7372Z" fill="#00A63E"/>
</svg>
