<svg width="22" height="22" viewBox="0 0 22 22" fill="none" xmlns="http://www.w3.org/2000/svg">
<path d="M12.125 3.125C12.125 2.50273 11.6223 2 11 2C10.3777 2 9.875 2.50273 9.875 3.125V11.6574L7.29453 9.07696C6.85508 8.6375 6.14141 8.6375 5.70196 9.07696C5.2625 9.51641 5.2625 10.2301 5.70196 10.6695L10.202 15.1696C10.6414 15.609 11.3551 15.609 11.7945 15.1696L16.2946 10.6695C16.734 10.2301 16.734 9.51641 16.2946 9.07696C15.8551 8.6375 15.1413 8.6375 14.7019 9.07696L12.125 11.6574V3.125ZM4.25 14.375C3.00898 14.375 2 15.384 2 16.625V17.75C2 18.991 3.00898 20 4.25 20H17.75C18.991 20 20 18.991 20 17.75V16.625C20 15.384 18.991 14.375 17.75 14.375H14.1816L12.5891 15.9676C11.7102 16.8465 10.2863 16.8465 9.40742 15.9676L7.81836 14.375H4.25ZM17.1875 16.3438C17.4113 16.3438 17.6259 16.4326 17.7841 16.5909C17.9424 16.7491 18.0312 16.9637 18.0312 17.1875C18.0312 17.4113 17.9424 17.6259 17.7841 17.7841C17.6259 17.9424 17.4113 18.0312 17.1875 18.0312C16.9637 18.0312 16.7491 17.9424 16.5909 17.7841C16.4326 17.6259 16.3438 17.4113 16.3438 17.1875C16.3438 16.9637 16.4326 16.7491 16.5909 16.5909C16.7491 16.4326 16.9637 16.3438 17.1875 16.3438Z" fill="#181725"/>
</svg>
