<svg width="14" height="14" viewBox="0 0 14 14" fill="none" xmlns="http://www.w3.org/2000/svg">
<path d="M7.19969 1.80068L11.3996 6.00043M7.79968 12.6H12.5996M7.84408 1.73169C8.29107 1.24752 8.51427 1.00573 8.75187 0.864141C9.03235 0.696261 9.35212 0.605261 9.67897 0.600311C10.0058 0.595361 10.3282 0.676634 10.6136 0.835943C10.8554 0.970334 11.0858 1.20552 11.5466 1.67589C12.0074 2.14686 12.2378 2.38265 12.3686 2.62923C12.5247 2.92286 12.604 3.25115 12.5993 3.58364C12.5946 3.91613 12.506 4.24204 12.3416 4.53112C12.2036 4.7735 11.9666 5.00209 11.492 5.45866L5.85031 10.8925C4.95152 11.7583 4.50213 12.1909 3.94054 12.4104C3.37894 12.63 2.76155 12.6132 1.52677 12.5814L1.35877 12.5766C0.983179 12.567 0.794782 12.5622 0.686183 12.438C0.576385 12.3138 0.591385 12.1225 0.621384 11.7397L0.637584 11.5321C0.721583 10.4546 0.763582 9.91579 0.973579 9.43102C1.18358 8.94625 1.54717 8.55328 2.27316 7.76672L7.84408 1.73169Z" stroke="#06844B" stroke-width="1.2" stroke-linecap="round" stroke-linejoin="round"/>
</svg>
