<svg width="14" height="14" viewBox="0 0 14 14" fill="none" xmlns="http://www.w3.org/2000/svg">
<path d="M6.99915 1.74976H2.91648C2.60711 1.74976 2.31041 1.87265 2.09165 2.09141C1.8729 2.31017 1.75 2.60686 1.75 2.91623V11.0816C1.75 11.3909 1.8729 11.6876 2.09165 11.9064C2.31041 12.1252 2.60711 12.248 2.91648 12.248H11.0818C11.3912 12.248 11.6879 12.1252 11.9066 11.9064C12.1254 11.6876 12.2483 11.3909 12.2483 11.0816V6.9989" stroke="#0A0A0A" stroke-width="1.16648" stroke-linecap="round" stroke-linejoin="round"/>
<path d="M10.7175 1.53096C10.9495 1.29893 11.2642 1.16858 11.5924 1.16858C11.9205 1.16858 12.2352 1.29893 12.4672 1.53096C12.6992 1.76298 12.8296 2.07768 12.8296 2.40581C12.8296 2.73395 12.6992 3.04865 12.4672 3.28067L7.21048 8.53798C7.07199 8.67635 6.9009 8.77764 6.71298 8.83252L5.03733 9.32244C4.98715 9.33708 4.93395 9.33795 4.88331 9.32498C4.83266 9.31201 4.78644 9.28566 4.74948 9.24869C4.71251 9.21172 4.68616 9.1655 4.67319 9.11486C4.66021 9.06422 4.66109 9.01102 4.67573 8.96083L5.16565 7.28519C5.22078 7.09741 5.32227 6.92653 5.46077 6.78827L10.7175 1.53096Z" stroke="#0A0A0A" stroke-width="1.16648" stroke-linecap="round" stroke-linejoin="round"/>
</svg>
