<svg width="14" height="14" viewBox="0 0 14 14" fill="none" xmlns="http://www.w3.org/2000/svg">
<path d="M7.20018 1.80068L11.4001 6.00043M7.80017 12.6H12.6001M7.84457 1.73169C8.29156 1.24752 8.51476 1.00573 8.75235 0.864141C9.03283 0.696261 9.35261 0.605261 9.67946 0.600311C10.0063 0.595361 10.3287 0.676634 10.6141 0.835943C10.8559 0.970334 11.0863 1.20552 11.5471 1.67589C12.0079 2.14686 12.2383 2.38265 12.3691 2.62923C12.5252 2.92286 12.6045 3.25115 12.5998 3.58364C12.5951 3.91613 12.5064 4.24204 12.3421 4.53112C12.2041 4.7735 11.9671 5.00209 11.4925 5.45866L5.8508 10.8925C4.95201 11.7583 4.50262 12.1909 3.94102 12.4104C3.37943 12.63 2.76204 12.6132 1.52726 12.5814L1.35926 12.5766C0.983667 12.567 0.79527 12.5622 0.686672 12.438C0.576873 12.3138 0.591873 12.1225 0.621872 11.7397L0.638072 11.5321C0.722071 10.4546 0.76407 9.91579 0.974067 9.43102C1.18406 8.94625 1.54766 8.55328 2.27365 7.76672L7.84457 1.73169Z" stroke="#364153" stroke-width="1.2" stroke-linecap="round" stroke-linejoin="round"/>
</svg>
