<svg width="28" height="25" viewBox="0 0 28 25" fill="none" xmlns="http://www.w3.org/2000/svg">
<path fill-rule="evenodd" clip-rule="evenodd" d="M10.7819 1.8319C12.1943 -0.610632 15.8075 -0.610632 17.218 1.8319L27.5202 19.648C28.9049 22.0438 27.127 25 24.304 25H3.69781C0.87302 25 -0.904937 22.0438 0.479764 19.648L10.7819 1.8319ZM15.8463 19.6139C15.8463 20.0902 15.6517 20.547 15.3055 20.8838C14.9593 21.2206 14.4896 21.4098 14 21.4098C13.5103 21.4098 13.0407 21.2206 12.6945 20.8838C12.3482 20.547 12.1537 20.0902 12.1537 19.6139C12.1537 19.1375 12.3482 18.6807 12.6945 18.3439C13.0407 18.0071 13.5103 17.8179 14 17.8179C14.4896 17.8179 14.9593 18.0071 15.3055 18.3439C15.6517 18.6807 15.8463 19.1375 15.8463 19.6139ZM14 5.24605C13.5103 5.24605 13.0407 5.43527 12.6945 5.77208C12.3482 6.10889 12.1537 6.5657 12.1537 7.04203V12.43C12.1537 12.9063 12.3482 13.3631 12.6945 13.6999C13.0407 14.0367 13.5103 14.2259 14 14.2259C14.4896 14.2259 14.9593 14.0367 15.3055 13.6999C15.6517 13.3631 15.8463 12.9063 15.8463 12.43V7.04203C15.8463 6.5657 15.6517 6.10889 15.3055 5.77208C14.9593 5.43527 14.4896 5.24605 14 5.24605Z" fill="#F54900"/>
</svg>
