<svg width="20" height="20" viewBox="0 0 20 20" fill="none" xmlns="http://www.w3.org/2000/svg">
<g clip-path="url(#clip0_174_21629)">
<path d="M8.18049 2.07856C8.6023 2.25102 8.87648 2.65113 8.87648 3.09952V5.85887H12.8134C16.2301 5.85887 19 8.57683 19 11.9294C19 15.8374 16.1352 17.5826 15.4779 17.9345C15.39 17.9828 15.2916 18 15.1931 18C14.81 18 14.5007 17.693 14.5007 17.3205C14.5007 17.0618 14.6518 16.8238 14.8451 16.6479C15.1756 16.3444 15.6255 15.7373 15.6255 14.6922C15.6255 12.8642 14.114 11.381 12.251 11.381H8.87648V14.1404C8.87648 14.5853 8.6023 14.9889 8.18049 15.1613C7.75868 15.3338 7.27711 15.2372 6.95372 14.9233L1.32954 9.40463C0.890152 8.97348 0.890152 8.2733 1.32954 7.84215L6.95372 2.32346C7.27711 2.00613 7.75868 1.913 8.18049 2.08546V2.07856Z" fill="#00A63E"/>
</g>
<defs>
<clipPath id="clip0_174_21629">
<rect width="20" height="20" fill="white"/>
</clipPath>
</defs>
</svg>
