<svg width="14" height="14" viewBox="0 0 14 14" fill="none" xmlns="http://www.w3.org/2000/svg">
<g clip-path="url(#clip0_228_251362)">
<path d="M5.83367 11.6647C5.83362 11.7731 5.86377 11.8794 5.92074 11.9716C5.97771 12.0638 6.05924 12.1383 6.1562 12.1867L7.32267 12.77C7.41162 12.8144 7.51044 12.8354 7.60977 12.8309C7.7091 12.8264 7.80562 12.7966 7.89018 12.7443C7.97474 12.692 8.04453 12.6189 8.09291 12.5321C8.14129 12.4452 8.16667 12.3474 8.16662 12.248V8.16532C8.16675 7.87625 8.27421 7.59754 8.46815 7.38319L12.6809 2.7237C12.7564 2.64004 12.806 2.5363 12.8238 2.42502C12.8416 2.31374 12.8268 2.19968 12.7811 2.09665C12.7355 1.99362 12.661 1.90602 12.5666 1.84444C12.4722 1.78287 12.362 1.74996 12.2493 1.74969H1.751C1.6382 1.74974 1.52784 1.78248 1.43328 1.84397C1.33871 1.90545 1.26401 1.99304 1.21821 2.09612C1.17241 2.19919 1.15749 2.31334 1.17524 2.42473C1.19299 2.53612 1.24266 2.63997 1.31823 2.7237L5.53213 7.38319C5.72608 7.59754 5.83353 7.87625 5.83367 8.16532V11.6647Z" stroke="#0A0A0A" stroke-width="1.16648" stroke-linecap="round" stroke-linejoin="round"/>
</g>
<defs>
<clipPath id="clip0_228_251362">
<rect width="13.9977" height="13.9977" fill="white"/>
</clipPath>
</defs>
</svg>
