<svg width="26" height="26" viewBox="0 0 26 26" fill="none" xmlns="http://www.w3.org/2000/svg">
<g clip-path="url(#clip0_174_11222)">
<path d="M2 2.78549C2 2.57717 2.08276 2.37737 2.23009 2.23006C2.37741 2.08276 2.57722 2 2.78556 2H3.47372C4.61592 2 5.27265 2.74307 5.65287 3.48458C5.9121 3.992 6.09907 4.61097 6.25461 5.14824H22.4293C22.6721 5.14832 22.9116 5.20464 23.1289 5.31279C23.3462 5.42095 23.5355 5.57799 23.682 5.7716C23.8284 5.96521 23.928 6.19011 23.9729 6.42867C24.0178 6.66722 24.0068 6.91294 23.9408 7.14653L21.5904 15.4334C21.4034 16.0909 21.0071 16.6695 20.4616 17.0814C19.9161 17.4934 19.2511 17.7162 18.5675 17.7161H10.5878C9.89848 17.7163 9.22823 17.4899 8.6803 17.0718C8.13236 16.6536 7.73713 16.0669 7.5555 15.402L6.54684 11.7024L6.53113 11.6521L4.91287 6.15681L4.75575 5.62739C4.59864 5.08383 4.46038 4.60311 4.25299 4.19937C4.00319 3.71237 3.7738 3.57098 3.47372 3.57098H2.78556C2.57722 3.57098 2.37741 3.48822 2.23009 3.34091C2.08276 3.19361 2 2.99381 2 2.78549ZM10.6459 24C11.2709 24 11.8704 23.7517 12.3123 23.3098C12.7543 22.8679 13.0026 22.2685 13.0026 21.6435C13.0026 21.0186 12.7543 20.4192 12.3123 19.9773C11.8704 19.5353 11.2709 19.2871 10.6459 19.2871C10.0209 19.2871 9.42144 19.5353 8.97947 19.9773C8.53751 20.4192 8.28922 21.0186 8.28922 21.6435C8.28922 22.2685 8.53751 22.8679 8.97947 23.3098C9.42144 23.7517 10.0209 24 10.6459 24ZM18.5015 24C19.1266 24 19.726 23.7517 20.168 23.3098C20.6099 22.8679 20.8582 22.2685 20.8582 21.6435C20.8582 21.0186 20.6099 20.4192 20.168 19.9773C19.726 19.5353 19.1266 19.2871 18.5015 19.2871C17.8765 19.2871 17.2771 19.5353 16.8351 19.9773C16.3931 20.4192 16.1448 21.0186 16.1448 21.6435C16.1448 22.2685 16.3931 22.8679 16.8351 23.3098C17.2771 23.7517 17.8765 24 18.5015 24Z" fill="#6A6E7A"/>
</g>
<defs>
<clipPath id="clip0_174_11222">
<rect width="26" height="26" fill="white"/>
</clipPath>
</defs>
</svg>
