<svg width="26" height="26" viewBox="0 0 26 26" fill="none" xmlns="http://www.w3.org/2000/svg">
<g clip-path="url(#clip0_174_11217)">
<path d="M9.18332 6.4375C8.7711 6.4375 8.49628 6.85 8.49628 7.125V10.5625H7.12221V7.125C7.12221 6.7125 6.8474 6.4375 6.43518 6.4375C6.02295 6.4375 5.74814 6.85 5.74814 7.125V10.5625H4.37407V7.125C4.37407 6.7125 4.09926 6.4375 3.68704 6.4375C3.27481 6.4375 3 6.85 3 7.125V11.6625C3 12.9 3.96185 13.8625 5.06111 14V23.625C5.06111 24.45 5.61073 25 6.43518 25C7.25962 25 7.80925 24.45 7.80925 23.625V14C8.9085 13.8625 9.87035 12.9 9.87035 11.6625V7.125C9.87035 6.85 9.59554 6.4375 9.18332 6.4375ZM11.9315 7.125V15.375H13.3055V23.625C13.3055 24.45 13.8552 25 14.6796 25C15.504 25 16.0537 24.45 16.0537 23.625V3C13.7177 3 11.9315 4.7875 11.9315 7.125ZM21.5499 5.75C19.6263 5.75 18.1148 7.8125 18.1148 10.2875C17.9774 11.9375 18.8018 13.45 20.1759 14.4125V23.625C20.1759 24.45 20.7255 25 21.5499 25C22.3744 25 22.924 24.45 22.924 23.625V14.4125C24.2981 13.45 25.1225 11.9375 24.9851 10.2875C24.9851 7.8125 23.4736 5.75 21.5499 5.75Z" fill="#6A6E7A"/>
</g>
<defs>
<clipPath id="clip0_174_11217">
<rect width="26" height="26" fill="white"/>
</clipPath>
</defs>
</svg>
