<svg width="18" height="18" viewBox="0 0 18 18" fill="none" xmlns="http://www.w3.org/2000/svg">
<path d="M12.3628 2H5.52819C4.46192 2 3.43932 2.42357 2.68535 3.17754C1.93139 3.93151 1.50781 4.95411 1.50781 6.02038V11.6489C1.50781 12.1769 1.6118 12.6997 1.81385 13.1874C2.01589 13.6752 2.31203 14.1184 2.68535 14.4917C3.43932 15.2457 4.46192 15.6693 5.52819 15.6693H12.3628C12.8908 15.6693 13.4136 15.5653 13.9014 15.3633C14.3891 15.1612 14.8323 14.8651 15.2057 14.4917C15.579 14.1184 15.8751 13.6752 16.0772 13.1874C16.2792 12.6997 16.3832 12.1769 16.3832 11.6489V6.02038C16.3832 5.49241 16.2792 4.96962 16.0772 4.48185C15.8751 3.99407 15.579 3.55087 15.2057 3.17754C14.8323 2.80421 14.3891 2.50808 13.9014 2.30603C13.4136 2.10399 12.8908 2 12.3628 2Z" stroke="#6A6E7A" stroke-width="1.5" stroke-linecap="round" stroke-linejoin="round"/>
<path d="M1.70703 12.8557L3.91824 10.2827C4.20758 9.99529 4.58732 9.81672 4.99319 9.77715C5.39906 9.73759 5.80614 9.83948 6.14553 10.0656C6.48492 10.2916 6.89199 10.3935 7.29786 10.354C7.70374 10.3144 8.08348 10.1358 8.37282 9.84846L10.2463 7.97496C10.7846 7.43481 11.4974 7.10351 12.2573 7.04018C13.0173 6.97685 13.775 7.18561 14.3953 7.62921L16.3975 9.18108M5.72741 7.36387C5.90269 7.36387 6.07626 7.32934 6.2382 7.26226C6.40014 7.19519 6.54729 7.09687 6.67123 6.97292C6.79517 6.84898 6.89349 6.70183 6.96057 6.53989C7.02765 6.37795 7.06217 6.20439 7.06217 6.0291C7.06217 5.85382 7.02765 5.68025 6.96057 5.51831C6.89349 5.35637 6.79517 5.20922 6.67123 5.08528C6.54729 4.96134 6.40014 4.86302 6.2382 4.79594C6.07626 4.72886 5.90269 4.69434 5.72741 4.69434C5.37341 4.69434 5.0339 4.83496 4.78359 5.08528C4.53327 5.3356 4.39264 5.6751 4.39264 6.0291C4.39264 6.3831 4.53327 6.72261 4.78359 6.97292C5.0339 7.22324 5.37341 7.36387 5.72741 7.36387Z" stroke="#6A6E7A" stroke-width="1.5" stroke-linecap="round" stroke-linejoin="round"/>
</svg>
