<svg width="18" height="18" viewBox="0 0 18 18" fill="none" xmlns="http://www.w3.org/2000/svg">
<path d="M0 0.642674C0 0.472226 0.0677164 0.308759 0.188252 0.188235C0.308788 0.0677099 0.47227 0 0.642733 0H1.20577C2.1403 0 2.67763 0.607969 2.98871 1.21465C3.20081 1.62982 3.35378 2.13625 3.48104 2.57584H16.7149C16.9135 2.57589 17.1095 2.62198 17.2873 2.71047C17.4651 2.79896 17.62 2.92745 17.7398 3.08585C17.8596 3.24426 17.9411 3.42828 17.9778 3.62346C18.0146 3.81864 18.0056 4.01968 17.9515 4.2108L16.0285 10.991C15.8755 11.5289 15.5513 12.0023 15.1049 12.3393C14.6586 12.6764 14.1145 12.8587 13.5552 12.8586H7.02636C6.46239 12.8588 5.91401 12.6736 5.4657 12.3314C5.01738 11.9893 4.69401 11.5093 4.54541 10.9653L3.72014 7.9383L3.70728 7.89717L2.38325 3.40103L2.25471 2.96787C2.12616 2.52314 2.01304 2.12982 1.84336 1.79949C1.63897 1.40103 1.45129 1.28535 1.20577 1.28535H0.642733C0.47227 1.28535 0.308788 1.21764 0.188252 1.09711C0.0677164 0.976588 0 0.813121 0 0.642674ZM7.07392 18C7.58531 18 8.07576 17.7969 8.43736 17.4353C8.79897 17.0737 9.00212 16.5833 9.00212 16.072C9.00212 15.5606 8.79897 15.0702 8.43736 14.7087C8.07576 14.3471 7.58531 14.144 7.07392 14.144C6.56253 14.144 6.07208 14.3471 5.71048 14.7087C5.34887 15.0702 5.14572 15.5606 5.14572 16.072C5.14572 16.5833 5.34887 17.0737 5.71048 17.4353C6.07208 17.7969 6.56253 18 7.07392 18ZM13.5013 18C14.0126 18 14.5031 17.7969 14.8647 17.4353C15.2263 17.0737 15.4295 16.5833 15.4295 16.072C15.4295 15.5606 15.2263 15.0702 14.8647 14.7087C14.5031 14.3471 14.0126 14.144 13.5013 14.144C12.9899 14.144 12.4994 14.3471 12.1378 14.7087C11.7762 15.0702 11.5731 15.5606 11.5731 16.072C11.5731 16.5833 11.7762 17.0737 12.1378 17.4353C12.4994 17.7969 12.9899 18 13.5013 18Z" fill="#05733F"/>
</svg>
