<svg width="10" height="12" viewBox="0 0 10 12" fill="none" xmlns="http://www.w3.org/2000/svg">
<path d="M2.59961 8.10059H6.59961M2.59961 6.10059H4.59961M5.09961 0.850586V1.10059C5.09961 2.51459 5.09961 3.22209 5.53911 3.66109C5.97811 4.10059 6.68561 4.10059 8.09961 4.10059H8.34961M8.59961 4.92909V6.60059C8.59961 8.48608 8.59961 9.42908 8.01361 10.0146C7.42761 10.6001 6.48511 10.6006 4.59961 10.6006C2.71411 10.6006 1.77111 10.6006 1.18561 10.0146C0.600109 9.42858 0.599609 8.48608 0.599609 6.60059V4.32859C0.599609 2.70609 0.599609 1.89459 1.04261 1.34509C1.13208 1.23413 1.23315 1.13306 1.34411 1.04359C1.89461 0.600586 2.70511 0.600586 4.32761 0.600586C4.68011 0.600586 4.85661 0.600586 5.01811 0.657586C5.05144 0.669586 5.08428 0.683253 5.11661 0.698586C5.27161 0.772586 5.39611 0.897086 5.64561 1.14659L8.01361 3.51459C8.30311 3.80359 8.44711 3.94859 8.52361 4.13209C8.59961 4.31609 8.59961 4.52009 8.59961 4.92909Z" stroke="#016630" stroke-width="1.2" stroke-linecap="round" stroke-linejoin="round"/>
</svg>
