<svg width="20" height="20" viewBox="0 0 20 20" fill="none" xmlns="http://www.w3.org/2000/svg">
<g clip-path="url(#clip0_231_18293)">
<path d="M9.95499 15.4C10.27 15.4 10.5364 15.2911 10.7542 15.0733C10.972 14.8555 11.0806 14.5894 11.08 14.275C11.0794 13.9606 10.9708 13.6942 10.7542 13.4758C10.5376 13.2574 10.2712 13.1488 9.95499 13.15C9.63879 13.1512 9.37269 13.2601 9.1567 13.4767C8.9407 13.6933 8.8318 13.9594 8.83 14.275C8.8282 14.5906 8.9371 14.857 9.1567 15.0742C9.3763 15.2914 9.6424 15.4 9.95499 15.4ZM9.99999 19C8.755 19 7.585 18.7636 6.49 18.2908C5.395 17.818 4.4425 17.1769 3.6325 16.3675C2.8225 15.5581 2.1814 14.6056 1.7092 13.51C1.237 12.4144 1.0006 11.2444 1 10C0.999401 8.7556 1.2358 7.5856 1.7092 6.49C2.1826 5.3944 2.8237 4.4419 3.6325 3.6325C4.4413 2.8231 5.3938 2.182 6.49 1.7092C7.5862 1.2364 8.7562 1 9.99999 1C11.2438 1 12.4138 1.2364 13.51 1.7092C14.6062 2.182 15.5587 2.8231 16.3675 3.6325C17.1763 4.4419 17.8177 5.3944 18.2917 6.49C18.7657 7.5856 19.0018 8.7556 19 10C18.9982 11.2444 18.7618 12.4144 18.2908 13.51C17.8198 14.6056 17.1787 15.5581 16.3675 16.3675C15.5563 17.1769 14.6038 17.8183 13.51 18.2917C12.4162 18.7651 11.2462 19.0012 9.99999 19ZM10.09 6.13C10.465 6.13 10.7914 6.25 11.0692 6.49C11.347 6.73 11.4856 7.03 11.485 7.39C11.485 7.72 11.3839 8.0125 11.1817 8.2675C10.9795 8.5225 10.7506 8.7625 10.495 8.9875C10.15 9.2875 9.84639 9.6175 9.5842 9.9775C9.32199 10.3375 9.1906 10.7425 9.19 11.1925C9.19 11.4025 9.2689 11.5789 9.42669 11.7217C9.58449 11.8645 9.7681 11.9356 9.9775 11.935C10.2025 11.935 10.3939 11.86 10.5517 11.71C10.7095 11.56 10.8106 11.3725 10.855 11.1475C10.915 10.8325 11.05 10.5514 11.26 10.3042C11.47 10.057 11.695 9.8206 11.935 9.595C12.28 9.265 12.5764 8.905 12.8242 8.515C13.072 8.125 13.1956 7.69 13.195 7.21C13.195 6.445 12.8839 5.8189 12.2617 5.3317C11.6395 4.8445 10.9156 4.6006 10.09 4.6C9.52 4.6 8.9764 4.72 8.4592 4.96C7.942 5.2 7.5481 5.5675 7.2775 6.0625C7.1725 6.2425 7.1389 6.4339 7.1767 6.6367C7.2145 6.8395 7.3156 6.9931 7.48 7.0975C7.69 7.2175 7.9075 7.255 8.1325 7.21C8.3575 7.165 8.545 7.0375 8.695 6.8275C8.86 6.6025 9.06639 6.43 9.31419 6.31C9.56199 6.19 9.82059 6.13 10.09 6.13Z" fill="#6A6E7A"/>
</g>
<defs>
<clipPath id="clip0_231_18293">
<rect width="20" height="20" fill="white"/>
</clipPath>
</defs>
</svg>
