<svg width="26" height="26" viewBox="0 0 26 26" fill="none" xmlns="http://www.w3.org/2000/svg">
<path d="M13.0007 24.6666C19.444 24.6666 24.6673 19.4433 24.6673 13C24.6673 6.55666 19.444 1.33331 13.0007 1.33331C6.55733 1.33331 1.33398 6.55666 1.33398 13C1.33398 19.4433 6.55733 24.6666 13.0007 24.6666Z" stroke="#181725" stroke-width="1.5" stroke-linecap="round" stroke-linejoin="round"/>
<path d="M10.668 9.50001C10.6679 9.13744 10.7523 8.77983 10.9145 8.45556C11.0767 8.13129 11.3122 7.84928 11.6024 7.63191C11.8926 7.41454 12.2295 7.26778 12.5862 7.20329C12.943 7.13879 13.31 7.15833 13.6579 7.26036C14.0058 7.36238 14.3252 7.54409 14.5906 7.79105C14.8561 8.03801 15.0603 8.34344 15.1872 8.68311C15.314 9.02277 15.36 9.38732 15.3214 9.74783C15.2828 10.1083 15.1607 10.4549 14.9648 10.76C14.2671 11.845 13.0013 12.8787 13.0013 14.1667V14.75M12.992 18.8333H13.0025" stroke="#181725" stroke-width="1.5" stroke-linecap="round" stroke-linejoin="round"/>
</svg>
