<svg width="18" height="18" viewBox="0 0 18 18" fill="none" xmlns="http://www.w3.org/2000/svg">
<path d="M9 16.5C13.1421 16.5 16.5 13.1421 16.5 9C16.5 4.85786 13.1421 1.5 9 1.5C4.85786 1.5 1.5 4.85786 1.5 9C1.5 13.1421 4.85786 16.5 9 16.5Z" stroke="#181725" stroke-width="1.5" stroke-linecap="round" stroke-linejoin="round"/>
<path d="M7.5 6.75002C7.49994 6.51694 7.5542 6.28705 7.65847 6.07859C7.76275 5.87013 7.91417 5.68884 8.10072 5.5491C8.28727 5.40936 8.50381 5.31502 8.73318 5.27356C8.96255 5.23209 9.19842 5.24466 9.42209 5.31024C9.64575 5.37583 9.85105 5.49264 10.0217 5.6514C10.1924 5.81016 10.3237 6.00651 10.4052 6.22487C10.4868 6.44322 10.5163 6.67757 10.4915 6.90933C10.4667 7.14109 10.3882 7.36388 10.2622 7.56002C9.81375 8.25752 9 8.92202 9 9.75002V10.125M8.994 12.75H9.00075" stroke="#181725" stroke-width="1.5" stroke-linecap="round" stroke-linejoin="round"/>
</svg>
