<svg width="21" height="19" viewBox="0 0 21 19" fill="none" xmlns="http://www.w3.org/2000/svg">
<path d="M5.16438 15.0836C6.51413 16.4334 8.29016 17.2733 10.1898 17.4603C12.0895 17.6473 13.9952 17.1698 15.5822 16.1092C17.1692 15.0485 18.3394 13.4703 18.8932 11.6436C19.447 9.81687 19.3502 7.85461 18.6194 6.09124C17.8885 4.32786 16.5688 2.87248 14.8851 1.97311C13.2014 1.07375 11.258 0.786054 9.38592 1.15906C7.51388 1.53206 5.82911 2.54268 4.61872 4.0187C3.40833 5.49471 2.74722 7.34477 2.74805 9.25361V11.0833" stroke="#06844B" stroke-width="2" stroke-linecap="round" stroke-linejoin="round"/>
<path d="M0.916016 9.24992L2.74935 11.0833L4.58268 9.24992M10.0827 5.58325V10.1666H14.666" stroke="#06844B" stroke-width="2" stroke-linecap="round" stroke-linejoin="round"/>
</svg>
