<svg width="21" height="21" viewBox="0 0 21 21" fill="none" xmlns="http://www.w3.org/2000/svg">
<path d="M1.75 6.125L5.60875 2.26625C5.77155 2.10248 5.96515 1.97255 6.1784 1.88394C6.39165 1.79534 6.62033 1.74982 6.85125 1.75H14.1488C14.3797 1.74982 14.6083 1.79534 14.8216 1.88394C15.0348 1.97255 15.2284 2.10248 15.3913 2.26625L19.25 6.125" stroke="#155DFC" stroke-width="1.4583" stroke-linecap="round" stroke-linejoin="round"/>
<path d="M3.5 10.5V17.5C3.5 17.9641 3.68437 18.4092 4.01256 18.7374C4.34075 19.0656 4.78587 19.25 5.25 19.25H15.75C16.2141 19.25 16.6592 19.0656 16.9874 18.7374C17.3156 18.4092 17.5 17.9641 17.5 17.5V10.5" stroke="#155DFC" stroke-width="1.4583" stroke-linecap="round" stroke-linejoin="round"/>
<path d="M13.125 19.25V15.75C13.125 15.2859 12.9406 14.8408 12.6124 14.5126C12.2842 14.1844 11.8391 14 11.375 14H9.625C9.16087 14 8.71575 14.1844 8.38756 14.5126C8.05937 14.8408 7.875 15.2859 7.875 15.75V19.25" stroke="#155DFC" stroke-width="1.4583" stroke-linecap="round" stroke-linejoin="round"/>
<path d="M1.75 6.125H19.25" stroke="#155DFC" stroke-width="1.4583" stroke-linecap="round" stroke-linejoin="round"/>
<path d="M19.25 6.125V8.75C19.25 9.21413 19.0656 9.65925 18.7374 9.98744C18.4092 10.3156 17.9641 10.5 17.5 10.5C16.9888 10.4719 16.5005 10.2784 16.1087 9.94875C16.0043 9.8733 15.8788 9.83269 15.75 9.83269C15.6212 9.83269 15.4957 9.8733 15.3913 9.94875C14.9995 10.2784 14.5112 10.4719 14 10.5C13.4888 10.4719 13.0005 10.2784 12.6087 9.94875C12.5043 9.8733 12.3788 9.83269 12.25 9.83269C12.1212 9.83269 11.9957 9.8733 11.8913 9.94875C11.4995 10.2784 11.0112 10.4719 10.5 10.5C9.98877 10.4719 9.50051 10.2784 9.10875 9.94875C9.00435 9.8733 8.87881 9.83269 8.75 9.83269C8.62119 9.83269 8.49565 9.8733 8.39125 9.94875C7.99949 10.2784 7.51123 10.4719 7 10.5C6.48877 10.4719 6.00051 10.2784 5.60875 9.94875C5.50435 9.8733 5.37881 9.83269 5.25 9.83269C5.12119 9.83269 4.99565 9.8733 4.89125 9.94875C4.49949 10.2784 4.01123 10.4719 3.5 10.5C3.03587 10.5 2.59075 10.3156 2.26256 9.98744C1.93437 9.65925 1.75 9.21413 1.75 8.75V6.125" stroke="#155DFC" stroke-width="1.4583" stroke-linecap="round" stroke-linejoin="round"/>
</svg>
