<svg width="28" height="28" viewBox="0 0 28 28" fill="none" xmlns="http://www.w3.org/2000/svg">
<path d="M5.24984 24.5C5.86868 24.5 6.46217 24.2542 6.89975 23.8166C7.33734 23.379 7.58317 22.7855 7.58317 22.1667C7.58317 21.5478 7.33734 20.9543 6.89975 20.5168C6.46217 20.0792 5.86868 19.8333 5.24984 19.8333C4.631 19.8333 4.03751 20.0792 3.59992 20.5168C3.16234 20.9543 2.9165 21.5478 2.9165 22.1667C2.9165 22.7855 3.16234 23.379 3.59992 23.8166C4.03751 24.2542 4.631 24.5 5.24984 24.5ZM5.24984 8.16667C5.86868 8.16667 6.46217 7.92083 6.89975 7.48325C7.33734 7.04566 7.58317 6.45217 7.58317 5.83333C7.58317 5.21449 7.33734 4.621 6.89975 4.18342C6.46217 3.74583 5.86868 3.5 5.24984 3.5C4.631 3.5 4.03751 3.74583 3.59992 4.18342C3.16234 4.621 2.9165 5.21449 2.9165 5.83333C2.9165 6.45217 3.16234 7.04566 3.59992 7.48325C4.03751 7.92083 4.631 8.16667 5.24984 8.16667ZM5.24984 16.3333C5.86868 16.3333 6.46217 16.0875 6.89975 15.6499C7.33734 15.2123 7.58317 14.6188 7.58317 14C7.58317 13.3812 7.33734 12.7877 6.89975 12.3501C6.46217 11.9125 5.86868 11.6667 5.24984 11.6667C4.631 11.6667 4.03751 11.9125 3.59992 12.3501C3.16234 12.7877 2.9165 13.3812 2.9165 14C2.9165 14.6188 3.16234 15.2123 3.59992 15.6499C4.03751 16.0875 4.631 16.3333 5.24984 16.3333Z" fill="#06844B"/>
<path d="M12.25 14H25.0833M12.25 22.1667H25.0833M12.25 5.83337H25.0833" stroke="#06844B" stroke-width="2" stroke-linecap="round" stroke-linejoin="round"/>
</svg>
