<svg width="17" height="16" viewBox="0 0 17 16" fill="none" xmlns="http://www.w3.org/2000/svg">
<path d="M1 1V9.33333C1 11.69 1 12.8692 1.7325 13.6008C2.46417 14.3333 3.64333 14.3333 6 14.3333H16" stroke="#00A63E" stroke-width="2" stroke-linecap="round" stroke-linejoin="round"/>
<path d="M3.5 9.33333L6.20833 6.625C6.745 6.08833 7.01333 5.82 7.3275 5.73167C7.54929 5.66914 7.78404 5.66914 8.00583 5.73167C8.32 5.82 8.58833 6.08833 9.125 6.625C9.66167 7.16167 9.93 7.43 10.2442 7.51833C10.4658 7.58167 10.7008 7.58167 10.9225 7.51833C11.2367 7.43 11.505 7.16167 12.0417 6.625L15.1667 3.5" stroke="#00A63E" stroke-width="2" stroke-linecap="round" stroke-linejoin="round"/>
</svg>
