<svg width="20" height="20" viewBox="0 0 20 20" fill="none" xmlns="http://www.w3.org/2000/svg">
<g clip-path="url(#clip0_174_21641)">
<path d="M7.88477 3.60996C8.95143 2.42746 10.6231 1.66663 12.5014 1.66663C15.7231 1.66663 18.3348 3.90496 18.3348 6.66663C18.3348 8.32413 17.3931 9.79329 15.9448 10.7033L15.8348 10.7666V14.1416C15.8348 14.3075 15.7852 14.4697 15.6925 14.6073C15.5998 14.7449 15.4681 14.8517 15.3143 14.9139C15.1606 14.9762 14.9917 14.9912 14.8293 14.957C14.667 14.9227 14.5186 14.8408 14.4031 14.7216L13.4531 13.7433C14.3439 12.69 14.8681 11.3966 14.8681 9.99913C14.8681 6.60996 11.7864 3.83663 7.88477 3.60996Z" fill="#155DFC"/>
<path d="M8.65547 14.905L5.59963 18.055C5.48415 18.1741 5.33573 18.2561 5.17339 18.2903C5.01105 18.3246 4.84218 18.3096 4.6884 18.2473C4.53463 18.185 4.40295 18.0782 4.31023 17.9406C4.21751 17.8031 4.16798 17.6409 4.16797 17.475V14.1L4.05797 14.0367C2.6088 13.1267 1.66797 11.6575 1.66797 10C1.66797 7.23833 4.27963 5 7.5013 5C10.723 5 13.3346 7.23833 13.3346 10C13.3346 12.2717 11.5671 14.19 9.1463 14.7983C8.98409 14.84 8.82036 14.8756 8.65547 14.905Z" fill="#155DFC"/>
</g>
<defs>
<clipPath id="clip0_174_21641">
<rect width="20" height="20" fill="white"/>
</clipPath>
</defs>
</svg>
