<svg width="11" height="11" viewBox="0 0 11 11" fill="none" xmlns="http://www.w3.org/2000/svg">
<path d="M5.05561 1.42826C5.07449 1.39398 5.10222 1.36539 5.13591 1.34548C5.16961 1.32557 5.20803 1.31506 5.24716 1.31506C5.2863 1.31506 5.32472 1.32557 5.35841 1.34548C5.3921 1.36539 5.41983 1.39398 5.43871 1.42826L6.7297 3.87904C6.76048 3.93579 6.80345 3.98501 6.85552 4.02319C6.90759 4.06136 6.96746 4.08753 7.03084 4.09982C7.09422 4.11212 7.15954 4.11022 7.2221 4.09428C7.28466 4.07833 7.34292 4.04874 7.39268 4.00761L9.26312 2.40525C9.29903 2.37604 9.34328 2.35899 9.38949 2.35653C9.43571 2.35407 9.48152 2.36635 9.52032 2.39158C9.55911 2.41681 9.58891 2.45371 9.6054 2.49695C9.6219 2.5402 9.62425 2.58756 9.61211 2.63222L8.37273 7.11306C8.34743 7.20475 8.29293 7.2857 8.21748 7.34362C8.14204 7.40155 8.04976 7.4333 7.95465 7.43406H2.54012C2.44492 7.43339 2.35255 7.40169 2.27702 7.34375C2.20148 7.28582 2.14691 7.20482 2.12159 7.11306L0.882651 2.63266C0.870515 2.58799 0.872864 2.54063 0.88936 2.49739C0.905855 2.45415 0.935647 2.41725 0.974446 2.39202C1.01324 2.36678 1.05905 2.35451 1.10527 2.35697C1.15148 2.35942 1.19573 2.37648 1.23164 2.40569L3.10164 4.00805C3.15141 4.04917 3.20966 4.07877 3.27223 4.09472C3.33479 4.11066 3.4001 4.11255 3.46349 4.10026C3.52687 4.08797 3.58674 4.0618 3.63881 4.02362C3.69087 3.98545 3.73384 3.93622 3.76463 3.87947L5.05561 1.42826Z" stroke="white" stroke-width="0.874652" stroke-linecap="round" stroke-linejoin="round"/>
<path d="M2.1875 9.18384H8.31006" stroke="white" stroke-width="0.874652" stroke-linecap="round" stroke-linejoin="round"/>
</svg>
