<svg width="20" height="20" viewBox="0 0 20 20" fill="none" xmlns="http://www.w3.org/2000/svg">
<path d="M5.4 3C5.04 3 4.8 3.36 4.8 3.6V6.6H3.6V3.6C3.6 3.24 3.36 3 3 3C2.64 3 2.4 3.36 2.4 3.6V6.6H1.2V3.6C1.2 3.24 0.96 3 0.6 3C0.24 3 0 3.36 0 3.6V7.56C0 8.64 0.84 9.48 1.8 9.6V18C1.8 18.72 2.28 19.2 3 19.2C3.72 19.2 4.2 18.72 4.2 18V9.6C5.16 9.48 6 8.64 6 7.56V3.6C6 3.36 5.76 3 5.4 3ZM7.8 3.6V10.8H9V18C9 18.72 9.48 19.2 10.2 19.2C10.92 19.2 11.4 18.72 11.4 18V0C9.36 0 7.8 1.56 7.8 3.6ZM16.2 2.4C14.52 2.4 13.2 4.2 13.2 6.36C13.08 7.8 13.8 9.12 15 9.96V18C15 18.72 15.48 19.2 16.2 19.2C16.92 19.2 17.4 18.72 17.4 18V9.96C18.6 9.12 19.32 7.8 19.2 6.36C19.2 4.2 17.88 2.4 16.2 2.4Z" fill="#155DFC"/>
</svg>
