<svg width="24" height="24" viewBox="0 0 24 24" fill="none" xmlns="http://www.w3.org/2000/svg">
<path d="M3.2474 22.5C3.86623 22.5 4.45973 22.2542 4.89731 21.8166C5.3349 21.379 5.58073 20.7855 5.58073 20.1667C5.58073 19.5478 5.3349 18.9543 4.89731 18.5168C4.45973 18.0792 3.86623 17.8333 3.2474 17.8333C2.62856 17.8333 2.03506 18.0792 1.59748 18.5168C1.1599 18.9543 0.914063 19.5478 0.914062 20.1667C0.914063 20.7855 1.1599 21.379 1.59748 21.8166C2.03506 22.2542 2.62856 22.5 3.2474 22.5ZM3.2474 6.16667C3.86623 6.16667 4.45973 5.92083 4.89731 5.48325C5.3349 5.04566 5.58073 4.45217 5.58073 3.83333C5.58073 3.21449 5.3349 2.621 4.89731 2.18342C4.45973 1.74583 3.86623 1.5 3.2474 1.5C2.62856 1.5 2.03506 1.74583 1.59748 2.18342C1.1599 2.621 0.914063 3.21449 0.914062 3.83333C0.914063 4.45217 1.1599 5.04566 1.59748 5.48325C2.03506 5.92083 2.62856 6.16667 3.2474 6.16667ZM3.2474 14.3333C3.86623 14.3333 4.45973 14.0875 4.89731 13.6499C5.3349 13.2123 5.58073 12.6188 5.58073 12C5.58073 11.3812 5.3349 10.7877 4.89731 10.3501C4.45973 9.9125 3.86623 9.66667 3.2474 9.66667C2.62856 9.66667 2.03506 9.9125 1.59748 10.3501C1.1599 10.7877 0.914063 11.3812 0.914062 12C0.914063 12.6188 1.1599 13.2123 1.59748 13.6499C2.03506 14.0875 2.62856 14.3333 3.2474 14.3333Z" stroke="#6A6E7A" stroke-width="1.5" stroke-linejoin="round"/>
<path d="M10.25 12.0002H23.0833M10.25 20.1668H23.0833M10.25 3.8335H23.0833" stroke="#6A6E7A" stroke-width="1.5" stroke-linecap="round" stroke-linejoin="round"/>
</svg>
