<svg width="20" height="20" viewBox="0 0 20 20" fill="none" xmlns="http://www.w3.org/2000/svg">
<g clip-path="url(#clip0_231_18303)">
<path d="M4.66667 5.05C3.03022 6.5332 2 8.5006 2 10.9C2 11.9637 2.20693 13.017 2.60896 13.9997C3.011 14.9825 3.60028 15.8754 4.34315 16.6276C5.08601 17.3797 5.96793 17.9764 6.93853 18.3834C7.90914 18.7905 8.94943 19 10 19C11.0506 19 12.0909 18.7905 13.0615 18.3834C14.0321 17.9764 14.914 17.3797 15.6569 16.6276C16.3997 15.8754 16.989 14.9825 17.391 13.9997C17.7931 13.017 18 11.9637 18 10.9C18 8.5006 16.9698 6.5332 15.3333 5.05M10 1V9.1M10 1C9.37778 1 8.21511 2.7946 7.77778 3.25M10 1C10.6222 1 11.7849 2.7946 12.2222 3.25" stroke="#6A6E7A" stroke-width="2.5" stroke-linecap="round" stroke-linejoin="round"/>
</g>
<defs>
<clipPath id="clip0_231_18303">
<rect width="20" height="20" fill="white"/>
</clipPath>
</defs>
</svg>
