<svg width="219" height="41" viewBox="0 0 219 41" fill="none" xmlns="http://www.w3.org/2000/svg">
<path d="M15.7366 40.32C12.4513 40.32 9.65129 39.704 7.33663 38.472C5.05929 37.24 3.30463 35.504 2.07263 33.264C0.877959 31.024 0.205959 28.392 0.0566252 25.368C0.0192918 23.7253 0.000625134 21.9893 0.000625134 20.16C0.000625134 18.2933 0.0192918 16.52 0.0566252 14.84C0.205959 11.816 0.877959 9.20267 2.07263 7.00001C3.30463 4.79734 5.07796 3.08001 7.39263 1.84801C9.70729 0.616007 12.4886 7.62939e-06 15.7366 7.62939e-06C18.3873 7.62939e-06 20.6833 0.373341 22.6246 1.12001C24.566 1.86667 26.1526 2.81867 27.3846 3.97601C28.654 5.09601 29.5873 6.27201 30.1846 7.50401C30.8193 8.73601 31.1553 9.81867 31.1926 10.752C31.23 11.088 31.1366 11.368 30.9126 11.592C30.6886 11.7787 30.39 11.872 30.0166 11.872H26.7126C26.3393 11.872 26.0593 11.7973 25.8726 11.648C25.7233 11.4987 25.574 11.2373 25.4246 10.864C25.0886 9.89334 24.5286 8.94134 23.7446 8.00801C22.998 7.07468 21.9713 6.30934 20.6646 5.71201C19.3953 5.07734 17.7526 4.76001 15.7366 4.76001C12.7873 4.76001 10.398 5.56268 8.56863 7.16801C6.77663 8.77334 5.80596 11.424 5.65663 15.12C5.54463 18.4427 5.54463 21.7653 5.65663 25.088C5.80596 28.8213 6.79529 31.5093 8.62463 33.152C10.454 34.7573 12.8433 35.56 15.7926 35.56C17.7713 35.56 19.526 35.2053 21.0566 34.496C22.6246 33.7493 23.8566 32.6107 24.7526 31.08C25.6486 29.5493 26.0966 27.608 26.0966 25.256V22.904H17.6966C17.3233 22.904 17.006 22.792 16.7446 22.568C16.5206 22.3067 16.4086 21.9707 16.4086 21.56V19.768C16.4086 19.3573 16.5206 19.04 16.7446 18.816C17.006 18.5547 17.3233 18.424 17.6966 18.424H30.3526C30.7633 18.424 31.0806 18.5547 31.3046 18.816C31.5286 19.04 31.6406 19.3573 31.6406 19.768V25.144C31.6406 28.2053 31.006 30.8747 29.7366 33.152C28.5046 35.4293 26.694 37.2027 24.3046 38.472C21.9153 39.704 19.0593 40.32 15.7366 40.32ZM49.9679 39.76C49.5946 39.76 49.2773 39.648 49.0159 39.424C48.7919 39.1627 48.6799 38.8453 48.6799 38.472V25.256L35.1839 2.40801C35.1466 2.29601 35.1093 2.18401 35.0719 2.07201C35.0346 1.96001 35.0159 1.82934 35.0159 1.68001C35.0159 1.38134 35.1279 1.12001 35.3519 0.896009C35.5759 0.672008 35.8373 0.560007 36.1359 0.560007H39.0479C39.3839 0.560007 39.6826 0.65334 39.9439 0.840007C40.2053 0.98934 40.3919 1.21334 40.5039 1.51201L51.4239 19.656L62.3439 1.51201C62.5306 1.21334 62.7359 0.98934 62.9599 0.840007C63.2213 0.65334 63.5199 0.560007 63.8559 0.560007H66.7119C67.0479 0.560007 67.3279 0.672008 67.5519 0.896009C67.7759 1.12001 67.8879 1.38134 67.8879 1.68001C67.8879 1.82934 67.8693 1.96001 67.8319 2.07201C67.7946 2.18401 67.7386 2.29601 67.6639 2.40801L54.2239 25.256V38.472C54.2239 38.8453 54.0933 39.1627 53.8319 39.424C53.6079 39.648 53.2906 39.76 52.8799 39.76H49.9679ZM67.7869 39.76C67.4882 39.76 67.2269 39.648 67.0029 39.424C66.7789 39.2 66.6669 38.9387 66.6669 38.64C66.6669 38.4533 66.6855 38.248 66.7229 38.024L80.6109 1.79201C80.7602 1.41867 80.9655 1.12001 81.2269 0.896009C81.4882 0.672008 81.8802 0.560007 82.4029 0.560007H86.2109C86.6962 0.560007 87.0695 0.672008 87.3309 0.896009C87.6295 1.12001 87.8535 1.41867 88.0029 1.79201L101.835 38.024C101.91 38.248 101.947 38.4533 101.947 38.64C101.947 38.9387 101.835 39.2 101.611 39.424C101.387 39.648 101.126 39.76 100.827 39.76H97.9709C97.5229 39.76 97.1869 39.648 96.9629 39.424C96.7762 39.2 96.6455 38.9947 96.5709 38.808L93.4909 30.856H75.1229L72.0429 38.808C72.0055 38.9947 71.8749 39.2 71.6509 39.424C71.4269 39.648 71.0909 39.76 70.6429 39.76H67.7869ZM76.7469 26.04H91.8669L84.3069 6.16001L76.7469 26.04ZM105.303 39.76C105.004 39.76 104.743 39.648 104.519 39.424C104.295 39.2 104.183 38.9387 104.183 38.64C104.183 38.4533 104.201 38.248 104.239 38.024L118.127 1.79201C118.276 1.41867 118.481 1.12001 118.743 0.896009C119.004 0.672008 119.396 0.560007 119.919 0.560007H123.727C124.212 0.560007 124.585 0.672008 124.847 0.896009C125.145 1.12001 125.369 1.41867 125.519 1.79201L139.351 38.024C139.425 38.248 139.463 38.4533 139.463 38.64C139.463 38.9387 139.351 39.2 139.127 39.424C138.903 39.648 138.641 39.76 138.343 39.76H135.487C135.039 39.76 134.703 39.648 134.479 39.424C134.292 39.2 134.161 38.9947 134.087 38.808L131.007 30.856H112.639L109.559 38.808C109.521 38.9947 109.391 39.2 109.167 39.424C108.943 39.648 108.607 39.76 108.159 39.76H105.303ZM114.263 26.04H129.383L121.823 6.16001L114.263 26.04ZM150.527 39.76C150.042 39.76 149.65 39.6293 149.351 39.368C149.09 39.1067 148.903 38.7333 148.791 38.248L141.567 2.29601C141.53 2.14667 141.511 2.01601 141.511 1.90401C141.511 1.79201 141.511 1.71734 141.511 1.68001C141.511 1.38134 141.623 1.12001 141.847 0.896009C142.071 0.672008 142.332 0.560007 142.631 0.560007H145.543C146.327 0.560007 146.775 0.877341 146.887 1.51201L152.599 30.408L158.647 10.584C158.759 10.248 158.946 9.94934 159.207 9.68801C159.506 9.38934 159.916 9.24001 160.439 9.24001H162.511C163.071 9.24001 163.482 9.38934 163.743 9.68801C164.004 9.94934 164.172 10.248 164.247 10.584L170.351 30.408L176.007 1.51201C176.119 0.877341 176.586 0.560007 177.407 0.560007H180.319C180.618 0.560007 180.879 0.672008 181.103 0.896009C181.327 1.12001 181.439 1.38134 181.439 1.68001C181.439 1.71734 181.42 1.79201 181.383 1.90401C181.383 2.01601 181.383 2.14667 181.383 2.29601L174.159 38.248C174.047 38.7333 173.842 39.1067 173.543 39.368C173.282 39.6293 172.908 39.76 172.423 39.76H170.239C169.716 39.76 169.306 39.6293 169.007 39.368C168.708 39.1067 168.503 38.7707 168.391 38.36L161.447 17.024L154.559 38.36C154.41 38.7707 154.186 39.1067 153.887 39.368C153.626 39.6293 153.234 39.76 152.711 39.76H150.527ZM184.599 39.76C184.301 39.76 184.039 39.648 183.815 39.424C183.591 39.2 183.479 38.9387 183.479 38.64C183.479 38.4533 183.498 38.248 183.535 38.024L197.423 1.79201C197.573 1.41867 197.778 1.12001 198.039 0.896009C198.301 0.672008 198.693 0.560007 199.215 0.560007H203.023C203.509 0.560007 203.882 0.672008 204.143 0.896009C204.442 1.12001 204.666 1.41867 204.815 1.79201L218.647 38.024C218.722 38.248 218.759 38.4533 218.759 38.64C218.759 38.9387 218.647 39.2 218.423 39.424C218.199 39.648 217.938 39.76 217.639 39.76H214.783C214.335 39.76 213.999 39.648 213.775 39.424C213.589 39.2 213.458 38.9947 213.383 38.808L210.303 30.856H191.935L188.855 38.808C188.818 38.9947 188.687 39.2 188.463 39.424C188.239 39.648 187.903 39.76 187.455 39.76H184.599ZM193.559 26.04H208.679L201.119 6.16001L193.559 26.04Z" fill="#181725"/>
</svg>
