<svg width="20" height="20" viewBox="0 0 20 20" fill="none" xmlns="http://www.w3.org/2000/svg">
<path d="M11.509 13.4062C11.7152 13.0625 11.5777 12.65 11.3027 12.4438L10.2715 11.825V10.3125C10.2715 9.9 9.99648 9.625 9.58398 9.625C9.17148 9.625 8.89648 9.9 8.89648 10.3125V11.825L7.86523 12.4438C7.52148 12.65 7.45273 13.0625 7.65898 13.4062C7.86523 13.75 8.27773 13.8187 8.62148 13.6125L9.58398 12.9937H9.65273H9.72149L10.684 13.6125C10.684 13.75 10.8215 13.75 10.959 13.75C11.1652 13.75 11.4402 13.6125 11.509 13.4062Z" fill="#06844B"/>
<path d="M6.14572 8.25H13.0207C13.227 8.25 13.4332 8.18125 13.5707 7.975C13.7082 7.8375 13.777 7.63125 13.7082 7.425C13.502 6.39375 12.7457 5.56875 11.7145 5.29375C11.4395 5.225 11.2332 5.01875 11.1645 4.74375C11.4395 4.4 11.6457 3.91875 11.6457 3.4375V2.0625C11.6457 0.89375 10.752 0 9.58322 0C8.41447 0 7.52072 0.89375 7.52072 2.0625V3.4375C7.52072 3.91875 7.72697 4.4 8.00197 4.74375C7.93322 5.01875 7.72697 5.225 7.45197 5.29375C6.42072 5.56875 5.66447 6.39375 5.52697 7.425C5.45822 7.63125 5.52697 7.8375 5.66447 7.975C5.73322 8.18125 5.93947 8.25 6.14572 8.25Z" fill="#06844B"/>
<path d="M17.2145 16.2938C16.9395 16.225 16.7332 16.0187 16.6645 15.7437C16.9395 15.4 17.1457 14.9188 17.1457 14.4375V13.0625C17.1457 11.8937 16.252 11 15.0832 11C13.9145 11 13.0207 11.8937 13.0207 13.0625V14.4375C13.0207 14.9188 13.227 15.4 13.502 15.7437C13.4332 16.0187 13.227 16.225 12.952 16.2938C11.9207 16.5688 11.1645 17.3937 11.027 18.425C10.9582 18.6312 11.027 18.8375 11.1645 18.975C11.302 19.1125 11.5082 19.25 11.7145 19.25H18.5895C18.7957 19.25 19.002 19.1813 19.1395 18.975C19.277 18.8375 19.3457 18.6312 19.277 18.425C19.002 17.3937 18.177 16.5688 17.2145 16.2938Z" fill="#06844B"/>
<path d="M6.21447 16.2938C5.93947 16.225 5.73322 16.0187 5.66447 15.7437C5.93947 15.4 6.14572 14.9188 6.14572 14.4375V13.0625C6.14572 11.8937 5.25197 11 4.08322 11C2.91447 11 2.02072 11.8937 2.02072 13.0625V14.4375C2.02072 14.9188 2.22697 15.4 2.50197 15.7437C2.43322 16.0187 2.22697 16.225 1.95197 16.2938C0.920721 16.5688 0.164471 17.3937 0.026971 18.425C-0.041779 18.6312 0.026971 18.8375 0.164471 18.975C0.233221 19.1813 0.439471 19.25 0.645721 19.25H7.52072C7.72697 19.25 7.93322 19.1813 8.07072 18.975C8.20822 18.8375 8.27697 18.6312 8.20822 18.425C8.00197 17.3937 7.17697 16.5688 6.21447 16.2938Z" fill="#06844B"/>
</svg>
