<svg width="24" height="18" viewBox="0 0 24 18" fill="none" xmlns="http://www.w3.org/2000/svg">
<path d="M1.38239 14.2258L1.37599 3.90687C1.37569 3.4176 1.7385 3.01949 2.18613 3.01785L21.9008 2.94717C22.3479 2.94558 22.7104 3.34021 22.7107 3.82892L22.7171 14.1479C22.7174 14.6372 22.3546 15.0353 21.907 15.0369L2.19227 15.1076C1.74518 15.1092 1.38269 14.7145 1.38239 14.2258Z" fill="#CEE2CC"/>
<path d="M22.7154 14.1612L22.7091 3.85311C22.7088 3.36492 22.3467 2.9707 21.9001 2.97229L21.1337 2.97504L21.1399 13.0124C21.1402 13.5012 20.7778 13.8989 20.3306 13.9005L1.4031 13.9684L1.40328 14.2391C1.40358 14.7273 1.76568 15.1215 2.2123 15.1199L21.9062 15.0493C22.3533 15.0477 22.7157 14.6499 22.7154 14.1612Z" fill="#81AD7D"/>
<path d="M15.4846 11.8713C16.9229 9.78992 16.5475 6.83162 14.6459 5.26379C12.7444 3.69596 10.0368 4.11231 8.59843 6.19372C7.16006 8.27514 7.53554 11.2334 9.4371 12.8013C11.3387 14.3691 14.0462 13.9527 15.4846 11.8713Z" fill="#1E8814"/>
<path d="M4.86291 2.93701C4.86399 5.0519 3.29781 6.77223 1.36481 6.77942L1.36328 3.8329C1.36304 3.3453 1.72487 2.94868 2.1715 2.94704L4.86291 2.93701Z" fill="#1E8814"/>
<path d="M1.42191 11.2093C3.36577 11.2021 4.94254 12.9131 4.94361 15.0308L2.23533 15.0409C1.78719 15.0425 1.42368 14.6472 1.4234 14.158L1.42191 11.2093Z" fill="#1E8814"/>
<path d="M19.2299 15.1198C19.2288 13.0049 20.795 11.2846 22.728 11.2774L22.7295 14.2239C22.7298 14.7115 22.3679 15.1082 21.9213 15.1098L19.2299 15.1198Z" fill="#1E8814"/>
<path d="M22.6708 6.84793C20.7269 6.85518 19.1502 5.14422 19.1491 3.02645L21.8574 3.01641C22.3055 3.01474 22.6691 3.41005 22.6693 3.89931L22.6708 6.84793Z" fill="#1E8814"/>
<path d="M18.3616 9.387C18.2662 9.3174 18.2034 9.19856 18.2035 9.06344C18.2035 8.8482 18.363 8.67315 18.5598 8.67243L20.5774 8.66529C20.774 8.66463 20.9335 8.83856 20.9334 9.0538C20.9333 9.26904 20.7739 9.44409 20.5771 9.44481L18.5595 9.45194C18.4863 9.45222 18.4182 9.42826 18.3616 9.387Z" fill="#1E8814"/>
<path d="M3.31794 9.32438C3.22251 9.25478 3.15977 9.13597 3.15981 9.00082C3.1599 8.78558 3.3194 8.61053 3.51608 8.60985L5.5337 8.60269C5.73038 8.60194 5.88974 8.7759 5.88973 8.99119C5.88964 9.20644 5.73014 9.38148 5.53345 9.38216L3.51583 9.38932C3.44258 9.38957 3.37451 9.36564 3.31794 9.32438Z" fill="#1E8814"/>
<path d="M12.3828 11.7582C13.102 11.5898 13.5207 10.935 13.6129 10.3226C13.7332 9.52293 13.3485 8.8279 12.6326 8.55191C12.5465 8.5187 12.4586 8.48406 12.3708 8.44804L12.365 6.86332C12.5701 6.92686 12.692 7.03865 12.704 7.04987C12.8493 7.19282 13.0718 7.1813 13.2034 7.02396C13.3358 6.86568 13.3257 6.61944 13.1808 6.47393C13.1624 6.45554 12.8585 6.15791 12.3621 6.06695L12.361 5.75961C12.3601 5.54463 12.2005 5.37058 12.0041 5.37081C11.8078 5.37105 11.6493 5.5455 11.6501 5.7605L11.6513 6.09575C11.6115 6.10594 11.5714 6.11718 11.5305 6.13063C11.0589 6.28605 10.7076 6.72725 10.6139 7.28211C10.5282 7.78943 10.6793 8.27916 11.0084 8.56024C11.1753 8.7028 11.3817 8.83363 11.6617 8.97098L11.6691 11.0103C11.436 10.9866 11.279 10.9175 11.0184 10.7317C10.8536 10.6143 10.6336 10.6651 10.5268 10.8452C10.4208 11.0239 10.4663 11.2628 10.6281 11.3812L10.6318 11.3839C11.0383 11.6736 11.319 11.7654 11.6719 11.791L11.6732 12.1354C11.6737 12.2702 11.7366 12.3889 11.832 12.4586C11.8887 12.5001 11.9568 12.5243 12.03 12.5242C12.2263 12.524 12.3848 12.3495 12.3841 12.1345L12.3828 11.7582ZM11.4446 7.94702C11.328 7.8474 11.2763 7.64289 11.313 7.42599C11.3444 7.23991 11.4504 7.01894 11.6543 6.91174L11.6587 8.10044C11.5791 8.051 11.5065 7.99992 11.4446 7.94702ZM12.3982 9.28615C12.9683 9.50611 12.9351 10.0365 12.9114 10.1939C12.867 10.4892 12.6867 10.8021 12.3798 10.9437L12.3738 9.27666C12.382 9.27982 12.3898 9.28288 12.3982 9.28615Z" fill="#CEE2CC"/>
</svg>
