<svg width="35" height="35" viewBox="0 0 35 35" fill="none" xmlns="http://www.w3.org/2000/svg">
<g opacity="0.3">
<path d="M25.5681 6.19824H8.52262C7.2389 6.19824 6.19824 7.2389 6.19824 8.52262V25.5681C6.19824 26.8518 7.2389 27.8925 8.52262 27.8925H25.5681C26.8518 27.8925 27.8925 26.8518 27.8925 25.5681V8.52262C27.8925 7.2389 26.8518 6.19824 25.5681 6.19824Z" stroke="#181725" stroke-width="2" stroke-linejoin="round"/>
<path d="M6.19824 22.469L12.3966 15.4958L24.7933 27.8925" stroke="#181725" stroke-width="2" stroke-linejoin="round"/>
<path d="M20.5321 16.2707C22.0298 16.2707 23.2439 15.0566 23.2439 13.5589C23.2439 12.0613 22.0298 10.8472 20.5321 10.8472C19.0344 10.8472 17.8203 12.0613 17.8203 13.5589C17.8203 15.0566 19.0344 16.2707 20.5321 16.2707Z" stroke="#181725" stroke-width="2" stroke-linejoin="round"/>
</g>
</svg>
