<svg width="19" height="19" viewBox="0 0 19 19" fill="none" xmlns="http://www.w3.org/2000/svg">
<g clip-path="url(#clip0_228_251497)">
<path d="M7.75156 3.87489C7.75156 3.4638 7.91487 3.06956 8.20555 2.77887C8.49623 2.48819 8.89048 2.32489 9.30156 2.32489C9.71265 2.32489 10.1069 2.48819 10.3976 2.77887C10.6883 3.06956 10.8516 3.4638 10.8516 3.87489C11.7416 4.29574 12.5003 4.95084 13.0464 5.77C13.5925 6.58915 13.9054 7.54147 13.9516 8.52489V10.8499C14.0099 11.3317 14.1805 11.7931 14.4497 12.1969C14.719 12.6008 15.0792 12.9357 15.5016 13.1749H3.10156C3.52389 12.9357 3.88416 12.6008 4.15338 12.1969C4.4226 11.7931 4.59324 11.3317 4.65156 10.8499V8.52489C4.69772 7.54147 5.01062 6.58915 5.55672 5.77C6.10283 4.95084 6.86155 4.29574 7.75156 3.87489" stroke="#36454F" stroke-width="1.5" stroke-linecap="round" stroke-linejoin="round"/>
<path d="M6.97656 13.1751V13.9501C6.97656 14.5667 7.22152 15.1581 7.65754 15.5941C8.09356 16.0302 8.68493 16.2751 9.30156 16.2751C9.91819 16.2751 10.5096 16.0302 10.9456 15.5941C11.3816 15.1581 11.6266 14.5667 11.6266 13.9501V13.1751" stroke="#36454F" stroke-width="1.5" stroke-linecap="round" stroke-linejoin="round"/>
<circle cx="13.9516" cy="4.65011" r="2.35" fill="#E7000B" stroke="#E8E8E9" stroke-width="1.5"/>
</g>
<defs>
<clipPath id="clip0_228_251497">
<rect width="18.6" height="18.6" fill="white"/>
</clipPath>
</defs>
</svg>
