<svg width="16" height="18" viewBox="0 0 16 18" fill="none" xmlns="http://www.w3.org/2000/svg">
<path d="M6 2.54592C6 2.06961 6.18437 1.61281 6.51256 1.27601C6.84075 0.939212 7.28587 0.75 7.75 0.75C8.21413 0.75 8.65925 0.939212 8.98744 1.27601C9.31563 1.61281 9.5 2.06961 9.5 2.54592C10.5049 3.03354 11.3615 3.79258 11.978 4.7417C12.5946 5.69082 12.9479 6.79423 13 7.93367V10.6276C13.0658 11.1858 13.2585 11.7204 13.5625 12.1883C13.8664 12.6562 14.2732 13.0443 14.75 13.3214H0.75C1.22682 13.0443 1.63358 12.6562 1.93754 12.1883C2.24149 11.7204 2.43415 11.1858 2.5 10.6276V7.93367C2.55212 6.79423 2.90539 5.69082 3.52196 4.7417C4.13852 3.79258 4.99514 3.03354 6 2.54592" stroke="#212121" stroke-width="1.5" stroke-linecap="round" stroke-linejoin="round"/>
<path d="M5.41602 13.3214V14.1786C5.41602 14.8605 5.66185 15.5146 6.09943 15.9968C6.53702 16.4791 7.13051 16.75 7.74935 16.75C8.36819 16.75 8.96168 16.4791 9.39927 15.9968C9.83685 15.5146 10.0827 14.8605 10.0827 14.1786V13.3214" stroke="#212121" stroke-width="1.5" stroke-linecap="round" stroke-linejoin="round"/>
</svg>
