<svg width="26" height="26" viewBox="0 0 26 26" fill="none" xmlns="http://www.w3.org/2000/svg">
<g clip-path="url(#clip0_262_3614)">
<path d="M10.834 5.41667C10.834 4.84203 11.0623 4.29093 11.4686 3.8846C11.8749 3.47827 12.426 3.25 13.0006 3.25C13.5753 3.25 14.1264 3.47827 14.5327 3.8846C14.939 4.29093 15.1673 4.84203 15.1673 5.41667C16.4114 6.00495 17.472 6.92069 18.2354 8.06574C18.9987 9.2108 19.4361 10.542 19.5006 11.9167V15.1667C19.5822 15.8402 19.8207 16.4851 20.197 17.0496C20.5734 17.6141 21.077 18.0824 21.6673 18.4167H4.33398C4.92433 18.0824 5.42794 17.6141 5.80427 17.0496C6.1806 16.4851 6.41912 15.8402 6.50065 15.1667V11.9167C6.56517 10.542 7.00256 9.2108 7.76593 8.06574C8.5293 6.92069 9.58987 6.00495 10.834 5.41667" stroke="#181725" stroke-width="1.5" stroke-linecap="round" stroke-linejoin="round"/>
<path d="M9.75 18.417V19.5003C9.75 20.3623 10.0924 21.1889 10.7019 21.7984C11.3114 22.4079 12.138 22.7503 13 22.7503C13.862 22.7503 14.6886 22.4079 15.2981 21.7984C15.9076 21.1889 16.25 20.3623 16.25 19.5003V18.417" stroke="#181725" stroke-width="1.5" stroke-linecap="round" stroke-linejoin="round"/>
</g>
<defs>
<clipPath id="clip0_262_3614">
<rect width="26" height="26" fill="white"/>
</clipPath>
</defs>
</svg>
