<svg width="11" height="11" viewBox="0 0 11 11" fill="none" xmlns="http://www.w3.org/2000/svg">
<g clip-path="url(#clip0_43_4303)">
<path d="M5.50453 1.13103C5.34054 0.966988 5.11811 0.874805 4.88615 0.874756H1.74965C1.51768 0.874756 1.29521 0.966906 1.13118 1.13094C0.96715 1.29496 0.875 1.51744 0.875 1.74941V4.88591C0.87505 5.11786 0.967233 5.3403 1.13127 5.50429L4.93776 9.31077C5.13653 9.50829 5.40537 9.61914 5.68558 9.61914C5.9658 9.61914 6.23464 9.50829 6.43341 9.31077L9.31102 6.43317C9.50853 6.2344 9.61939 5.96556 9.61939 5.68534C9.61939 5.40512 9.50853 5.13628 9.31102 4.93751L5.50453 1.13103Z" stroke="#00A63E" stroke-width="0.874652" stroke-linecap="round" stroke-linejoin="round"/>
<path d="M3.28116 3.49861C3.40193 3.49861 3.49983 3.40071 3.49983 3.27994C3.49983 3.15918 3.40193 3.06128 3.28116 3.06128C3.1604 3.06128 3.0625 3.15918 3.0625 3.27994C3.0625 3.40071 3.1604 3.49861 3.28116 3.49861Z" fill="#00A63E" stroke="#00A63E" stroke-width="0.874652" stroke-linecap="round" stroke-linejoin="round"/>
</g>
<defs>
<clipPath id="clip0_43_4303">
<rect width="10.4958" height="10.4958" fill="white"/>
</clipPath>
</defs>
</svg>
