<svg width="19" height="19" viewBox="0 0 19 19" fill="none" xmlns="http://www.w3.org/2000/svg">
<path d="M8.57634 13.2302C8.84557 13.2302 9.11481 13.2687 9.34557 13.3456L5.19173 1.57634L4.80711 0.422497C4.69173 0.0763434 4.34557 -0.0775028 4.03788 0.0378819L0.422497 1.23019C0.0763434 1.34557 -0.0775028 1.69173 0.0378819 1.99942L0.422497 3.15327C0.537882 3.49942 0.884036 3.65327 1.19173 3.53788L3.07634 2.9225L6.88404 13.7302C7.38404 13.4225 7.96096 13.2302 8.57634 13.2302Z" fill="#9810FA"/>
<path d="M15.0763 10.4225L11.2687 11.7687C10.884 11.9225 10.4225 11.6917 10.3071 11.3071L8.96096 7.49944C8.80711 7.11482 9.03788 6.65328 9.4225 6.5379L13.2302 5.19174C13.6148 5.0379 14.0763 5.26867 14.1917 5.65328L15.5379 9.46098C15.6917 9.84559 15.461 10.2687 15.0763 10.4225Z" fill="#9810FA"/>
<path d="M11.461 4.15329L8.88404 5.03791C8.49942 5.19175 8.03788 4.96098 7.9225 4.57637L7.03788 1.99945C6.88404 1.61483 7.11481 1.15329 7.49942 1.03791L10.0763 0.153292C10.461 -0.000554219 10.9225 0.230215 11.0379 0.61483L11.9225 3.19175C12.0763 3.53791 11.884 3.99945 11.461 4.15329Z" fill="#9810FA"/>
<path d="M18.4225 12.8456L18.0379 11.6918C17.9225 11.3456 17.5763 11.1918 17.2687 11.3072L10.2687 13.7302C10.9994 14.1918 11.4994 14.961 11.6533 15.8456L18.0763 13.6533C18.384 13.5379 18.5379 13.1918 18.4225 12.8456Z" fill="#9810FA"/>
<path d="M8.57634 14.2302C7.42249 14.2302 6.46096 15.1918 6.46096 16.3456C6.46096 17.4995 7.42249 18.461 8.57634 18.461C9.73019 18.461 10.6917 17.4995 10.6917 16.3456C10.6917 15.1533 9.73019 14.2302 8.57634 14.2302Z" fill="#9810FA"/>
</svg>
