<svg width="14" height="14" viewBox="0 0 14 14" fill="none" xmlns="http://www.w3.org/2000/svg">
<g clip-path="url(#clip0_109_84958)">
<path d="M3.49972 1.1665L1.75 3.49946V11.6648C1.75 11.9742 1.8729 12.2709 2.09165 12.4896C2.31041 12.7084 2.60711 12.8313 2.91648 12.8313H11.0818C11.3912 12.8313 11.6879 12.7084 11.9066 12.4896C12.1254 12.2709 12.2483 11.9742 12.2483 11.6648V3.49946L10.4986 1.1665H3.49972Z" stroke="#0A0A0A" stroke-width="1.16648" stroke-linecap="round" stroke-linejoin="round"/>
<path d="M1.75 3.49945H12.2483" stroke="#0A0A0A" stroke-width="1.16648" stroke-linecap="round" stroke-linejoin="round"/>
<path d="M9.33192 5.8324C9.33192 6.45114 9.08613 7.04453 8.64862 7.48204C8.2111 7.91956 7.61771 8.16535 6.99897 8.16535C6.38023 8.16535 5.78684 7.91956 5.34932 7.48204C4.91181 7.04453 4.66602 6.45114 4.66602 5.8324" stroke="#0A0A0A" stroke-width="1.16648" stroke-linecap="round" stroke-linejoin="round"/>
</g>
<defs>
<clipPath id="clip0_109_84958">
<rect width="13.9977" height="13.9977" fill="white"/>
</clipPath>
</defs>
</svg>
