<svg width="22" height="22" viewBox="0 0 22 22" fill="none" xmlns="http://www.w3.org/2000/svg">
<path d="M12.5427 16.8309L8.64333 20.6203C8.38267 20.8737 8.042 21 7.70067 21C7.35933 21 7.018 20.8737 6.758 20.6203L2.858 16.8309H12.5427ZM19.142 5.1691L15.2427 1.37966C14.982 1.12634 14.6413 1 14.3 1C13.9587 1 13.6173 1.12634 13.3573 1.37966L9.45733 5.1691H19.142ZM11 7.76061C9.034 7.76061 8.33333 9.43408 8.33333 11C8.33333 12.5659 9.034 14.2394 11 14.2394C12.966 14.2394 13.6667 12.5659 13.6667 11C13.6667 9.43408 12.966 7.76061 11 7.76061ZM21 14.8873C21 15.6032 20.4033 16.183 19.6667 16.183C19.6667 16.183 2.228 16.1733 2.17533 16.1675C1.56 16.0962 1.07733 15.6207 1.014 15.0201C1.00933 14.9754 1 7.11273 1 7.11273C1 6.39683 1.59667 5.81697 2.33333 5.81697C2.33333 5.81697 19.772 5.82669 19.8247 5.83252C20.44 5.90379 20.9227 6.37933 20.986 6.97992C20.9907 7.02462 21 14.8873 21 14.8873ZM3.66667 14.2394C3.66667 13.8818 3.368 13.5915 3 13.5915C2.632 13.5915 2.33333 13.8818 2.33333 14.2394C2.33333 14.597 2.632 14.8873 3 14.8873C3.368 14.8873 3.66667 14.597 3.66667 14.2394ZM3.66667 7.76061C3.66667 7.40298 3.368 7.11273 3 7.11273C2.632 7.11273 2.33333 7.40298 2.33333 7.76061C2.33333 8.11824 2.632 8.40849 3 8.40849C3.368 8.40849 3.66667 8.11824 3.66667 7.76061ZM14.3333 11C14.3333 8.85293 13.2093 7.11273 11 7.11273C8.79067 7.11273 7.66667 8.85293 7.66667 11C7.66667 13.1471 8.79067 14.8873 11 14.8873C13.2093 14.8873 14.3333 13.1471 14.3333 11ZM19.6667 14.2394C19.6667 13.8818 19.368 13.5915 19 13.5915C18.632 13.5915 18.3333 13.8818 18.3333 14.2394C18.3333 14.597 18.632 14.8873 19 14.8873C19.368 14.8873 19.6667 14.597 19.6667 14.2394ZM19.6667 7.76061C19.6667 7.40298 19.368 7.11273 19 7.11273C18.632 7.11273 18.3333 7.40298 18.3333 7.76061C18.3333 8.11824 18.632 8.40849 19 8.40849C19.368 8.40849 19.6667 8.11824 19.6667 7.76061Z" fill="white"/>
</svg>
