<svg width="18" height="18" viewBox="0 0 18 18" fill="none" xmlns="http://www.w3.org/2000/svg">
<path d="M1.5 9C1.5 6.17175 1.5 4.75725 2.379 3.879C3.258 3.00075 4.67175 3 7.5 3H10.5C13.3283 3 14.7428 3 15.621 3.879C16.4993 4.758 16.5 6.17175 16.5 9C16.5 11.8283 16.5 13.2428 15.621 14.121C14.742 14.9993 13.3283 15 10.5 15H7.5C4.67175 15 3.25725 15 2.379 14.121C1.50075 13.242 1.5 11.8283 1.5 9Z" stroke="#181725" stroke-width="1.5"/>
<path d="M7.5 12.375H4.5M6 10.125H4.5M1.5 7.5H16.5" stroke="#181725" stroke-width="1.5" stroke-linecap="round"/>
<path d="M10.5 11.25C10.5 10.5428 10.5 10.1895 10.7198 9.96975C10.9395 9.75 11.2928 9.75 12 9.75C12.7073 9.75 13.0605 9.75 13.2803 9.96975C13.5 10.1895 13.5 10.5428 13.5 11.25C13.5 11.9573 13.5 12.3105 13.2803 12.5303C13.0605 12.75 12.7073 12.75 12 12.75C11.2928 12.75 10.9395 12.75 10.7198 12.5303C10.5 12.3105 10.5 11.9573 10.5 11.25Z" stroke="#181725" stroke-width="1.5"/>
</svg>
