<svg width="15" height="20" viewBox="0 0 15 20" fill="none" xmlns="http://www.w3.org/2000/svg">
<path fill-rule="evenodd" clip-rule="evenodd" d="M0 2.4C0 1.76348 0.252856 1.15303 0.702944 0.702944C1.15303 0.252856 1.76348 0 2.4 0H7.9032C8.53967 0.00013593 9.15002 0.253082 9.6 0.7032L13.6968 4.8C14.1469 5.24998 14.3999 5.86033 14.4 6.4968V16.8C14.4 17.4365 14.1471 18.047 13.6971 18.4971C13.247 18.9471 12.6365 19.2 12 19.2H2.4C1.76348 19.2 1.15303 18.9471 0.702944 18.4971C0.252856 18.047 0 17.4365 0 16.8V2.4ZM2.4 9.6C2.4 9.28174 2.52643 8.97652 2.75147 8.75147C2.97652 8.52643 3.28174 8.4 3.6 8.4H10.8C11.1183 8.4 11.4235 8.52643 11.6485 8.75147C11.8736 8.97652 12 9.28174 12 9.6C12 9.91826 11.8736 10.2235 11.6485 10.4485C11.4235 10.6736 11.1183 10.8 10.8 10.8H3.6C3.28174 10.8 2.97652 10.6736 2.75147 10.4485C2.52643 10.2235 2.4 9.91826 2.4 9.6ZM3.6 13.2C3.28174 13.2 2.97652 13.3264 2.75147 13.5515C2.52643 13.7765 2.4 14.0817 2.4 14.4C2.4 14.7183 2.52643 15.0235 2.75147 15.2485C2.97652 15.4736 3.28174 15.6 3.6 15.6H10.8C11.1183 15.6 11.4235 15.4736 11.6485 15.2485C11.8736 15.0235 12 14.7183 12 14.4C12 14.0817 11.8736 13.7765 11.6485 13.5515C11.4235 13.3264 11.1183 13.2 10.8 13.2H3.6Z" fill="#06844B"/>
</svg>
