<svg width="18" height="22" viewBox="0 0 18 22" fill="none" xmlns="http://www.w3.org/2000/svg">
<path d="M4.59961 15.6001H12.5996M4.59961 11.6001H8.59961M9.59961 1.1001V1.6001C9.59961 4.4281 9.59961 5.8431 10.4786 6.7211C11.3566 7.6001 12.7716 7.6001 15.5996 7.6001H16.0996M16.5996 9.2571V12.6001C16.5996 16.3711 16.5996 18.2571 15.4276 19.4281C14.2556 20.5991 12.3706 20.6001 8.59961 20.6001C4.82861 20.6001 2.94261 20.6001 1.77161 19.4281C0.600609 18.2561 0.599609 16.3711 0.599609 12.6001V8.0561C0.599609 4.8111 0.59961 3.1881 1.48561 2.0891C1.66455 1.86719 1.8667 1.66504 2.08861 1.4861C3.18961 0.600098 4.81061 0.600098 8.05561 0.600098C8.76061 0.600098 9.11361 0.600098 9.43661 0.714098C9.50328 0.738098 9.56894 0.765431 9.63361 0.796098C9.94361 0.944098 10.1926 1.1931 10.6916 1.6921L15.4276 6.4281C16.0066 7.0061 16.2946 7.2961 16.4476 7.6631C16.5996 8.0311 16.5996 8.4391 16.5996 9.2571Z" stroke="#181725" stroke-width="1.2" stroke-linecap="round" stroke-linejoin="round"/>
</svg>
