<svg width="28" height="28" viewBox="0 0 28 28" fill="none" xmlns="http://www.w3.org/2000/svg">
<path fill-rule="evenodd" clip-rule="evenodd" d="M14 28C17.713 28 21.274 26.525 23.8995 23.8995C26.525 21.274 28 17.713 28 14C28 10.287 26.525 6.72601 23.8995 4.10051C21.274 1.475 17.713 0 14 0C10.287 0 6.72601 1.475 4.10051 4.10051C1.475 6.72601 0 10.287 0 14C0 17.713 1.475 21.274 4.10051 23.8995C6.72601 26.525 10.287 28 14 28ZM15.75 7C15.75 6.53587 15.5656 6.09075 15.2374 5.76256C14.9092 5.43437 14.4641 5.25 14 5.25C13.5359 5.25 13.0908 5.43437 12.7626 5.76256C12.4344 6.09075 12.25 6.53587 12.25 7V14C12.2501 14.4641 12.4345 14.9091 12.7628 15.2372L17.7118 20.188C17.8743 20.3506 18.0674 20.4796 18.2798 20.5676C18.4922 20.6556 18.7199 20.7008 18.9499 20.7008C19.1798 20.7008 19.4075 20.6556 19.6199 20.5676C19.8324 20.4796 20.0254 20.3506 20.188 20.188C20.3506 20.0254 20.4796 19.8324 20.5676 19.6199C20.6556 19.4075 20.7008 19.1798 20.7008 18.9499C20.7008 18.7199 20.6556 18.4922 20.5676 18.2798C20.4796 18.0674 20.3506 17.8743 20.188 17.7118L15.75 13.2755V7Z" fill="#D08700"/>
</svg>
