<svg width="14" height="14" viewBox="0 0 14 14" fill="none" xmlns="http://www.w3.org/2000/svg">
<path opacity="0.4" d="M10.4989 4.17663C10.4639 4.17079 10.4231 4.17079 10.3881 4.17663C9.58307 4.14746 8.94141 3.48829 8.94141 2.67163C8.94141 1.83746 9.61224 1.16663 10.4464 1.16663C11.2806 1.16663 11.9514 1.84329 11.9514 2.67163C11.9456 3.48829 11.3039 4.14746 10.4989 4.17663Z" stroke="#AD46FF" stroke-width="1.5" stroke-linecap="round" stroke-linejoin="round"/>
<path opacity="0.4" d="M9.89836 8.42339C10.6975 8.55755 11.5784 8.41755 12.1967 8.00339C13.0192 7.45505 13.0192 6.55672 12.1967 6.00839C11.5725 5.59422 10.68 5.45422 9.88086 5.59422" stroke="#AD46FF" stroke-width="1.5" stroke-linecap="round" stroke-linejoin="round"/>
<path opacity="0.4" d="M3.4818 4.17663C3.5168 4.17079 3.55763 4.17079 3.59263 4.17663C4.39763 4.14746 5.0393 3.48829 5.0393 2.67163C5.0393 1.83746 4.36846 1.16663 3.5343 1.16663C2.70013 1.16663 2.0293 1.84329 2.0293 2.67163C2.03513 3.48829 2.6768 4.14746 3.4818 4.17663Z" stroke="#AD46FF" stroke-width="1.5" stroke-linecap="round" stroke-linejoin="round"/>
<path opacity="0.4" d="M4.08122 8.42339C3.28206 8.55755 2.40122 8.41755 1.78289 8.00339C0.960391 7.45505 0.960391 6.55672 1.78289 6.00839C2.40706 5.59422 3.29956 5.45422 4.09872 5.59422" stroke="#AD46FF" stroke-width="1.5" stroke-linecap="round" stroke-linejoin="round"/>
<path d="M7.00086 8.53417C6.96586 8.52834 6.92503 8.52834 6.89003 8.53417C6.08503 8.50501 5.44336 7.84584 5.44336 7.02917C5.44336 6.195 6.11419 5.52417 6.94836 5.52417C7.78253 5.52417 8.45336 6.20084 8.45336 7.02917C8.44753 7.84584 7.80586 8.51084 7.00086 8.53417Z" stroke="#AD46FF" stroke-width="1.5" stroke-linecap="round" stroke-linejoin="round"/>
<path d="M5.30242 10.3717C4.47992 10.92 4.47992 11.8184 5.30242 12.3667C6.23576 12.9909 7.76409 12.9909 8.69742 12.3667C9.51992 11.8184 9.51992 10.92 8.69742 10.3717C7.76992 9.75338 6.23576 9.75338 5.30242 10.3717Z" stroke="#AD46FF" stroke-width="1.5" stroke-linecap="round" stroke-linejoin="round"/>
</svg>
