<svg width="14" height="18" viewBox="0 0 14 18" fill="none" xmlns="http://www.w3.org/2000/svg">
<path d="M14 14.8945C14 15.7461 13.7721 16.4766 13.3164 17.0859C12.8607 17.6953 12.312 18 11.6703 18H2.32969C1.68802 18 1.13932 17.6953 0.683594 17.0859C0.227865 16.4766 0 15.7461 0 14.8945C0 14.2305 0.0309896 13.6035 0.0929687 13.0137C0.154948 12.4238 0.269792 11.8301 0.4375 11.2324C0.605208 10.6348 0.81849 10.123 1.07734 9.69727C1.3362 9.27148 1.67891 8.92383 2.10547 8.6543C2.53203 8.38477 3.0224 8.25 3.57656 8.25C4.53177 9.25 5.67292 9.75 7 9.75C8.32708 9.75 9.46823 9.25 10.4234 8.25C10.9776 8.25 11.468 8.38477 11.8945 8.6543C12.3211 8.92383 12.6638 9.27148 12.9227 9.69727C13.1815 10.123 13.3948 10.6348 13.5625 11.2324C13.7302 11.8301 13.8451 12.4238 13.907 13.0137C13.969 13.6035 14 14.2305 14 14.8945ZM11.2 4.5C11.2 5.74219 10.7898 6.80273 9.96953 7.68164C9.14922 8.56055 8.15938 9 7 9C5.84062 9 4.85078 8.56055 4.03047 7.68164C3.21016 6.80273 2.8 5.74219 2.8 4.5C2.8 3.25781 3.21016 2.19727 4.03047 1.31836C4.85078 0.439453 5.84062 0 7 0C8.15938 0 9.14922 0.439453 9.96953 1.31836C10.7898 2.19727 11.2 3.25781 11.2 4.5Z" fill="white"/>
</svg>
