<svg width="16" height="18" viewBox="0 0 16 18" fill="none" xmlns="http://www.w3.org/2000/svg">
<path d="M12.75 8.25V3.56175C12.75 3.50255 12.7384 3.44392 12.7158 3.38922C12.6931 3.33453 12.6599 3.28484 12.618 3.243L10.257 0.882C10.1727 0.797585 10.0583 0.750105 9.939 0.75H1.2C1.08065 0.75 0.966193 0.797411 0.881802 0.881802C0.797411 0.966193 0.75 1.08065 0.75 1.2V15.3C0.75 15.4193 0.797411 15.5338 0.881802 15.6182C0.966193 15.7026 1.08065 15.75 1.2 15.75H7.5M3.75 6.75H9.75M3.75 3.75H6.75M3.75 9.75H6" stroke="#181725" stroke-width="1.5" stroke-linecap="round" stroke-linejoin="round"/>
<path d="M9.75 0.75V3.3C9.75 3.41935 9.79741 3.53381 9.8818 3.6182C9.96619 3.70259 10.0807 3.75 10.2 3.75H12.75M12.744 10.5938L14.661 11.0805C14.8605 11.1315 15.0008 11.313 14.9948 11.5185C14.8658 15.837 12.375 16.5 12.375 16.5C12.375 16.5 9.88425 15.837 9.75525 11.5185C9.75321 11.4185 9.78508 11.3208 9.84569 11.2413C9.9063 11.1617 9.99206 11.1051 10.089 11.0805L12.006 10.5938C12.2482 10.5322 12.5018 10.5322 12.744 10.5938Z" stroke="#181725" stroke-width="1.5" stroke-linecap="round" stroke-linejoin="round"/>
</svg>
