<svg width="26" height="26" viewBox="0 0 26 26" fill="none" xmlns="http://www.w3.org/2000/svg">
<path d="M23.5007 7.74992L18.834 10.0833M18.834 10.0833L18.2507 10.3749L13.0007 12.9999M18.834 10.0833V14.1666M18.834 10.0833L7.75065 4.24992M13.0007 12.9999L2.50065 7.74992M13.0007 12.9999V24.0833M17.175 2.94559L19.5083 4.17059C22.0178 5.48775 23.2732 6.14575 23.9708 7.32992C24.6673 8.51292 24.6673 9.98642 24.6673 12.9323V13.0688C24.6673 16.0134 24.6673 17.4869 23.9708 18.6699C23.2732 19.8541 22.0178 20.5133 19.5083 21.8304L17.175 23.0543C15.1263 24.1288 14.102 24.6666 13.0007 24.6666C11.8993 24.6666 10.875 24.1299 8.82632 23.0543L6.49298 21.8293C3.98348 20.5121 2.72815 19.8541 2.03048 18.6699C1.33398 17.4869 1.33398 16.0134 1.33398 13.0699V12.9334C1.33398 9.98759 1.33398 8.51409 2.03048 7.33109C2.72815 6.14692 3.98348 5.48775 6.49298 4.17175L8.82632 2.94675C10.875 1.87109 11.8993 1.33325 13.0007 1.33325C14.102 1.33325 15.1263 1.86992 17.175 2.94559Z" stroke="#6A6E7A" stroke-width="1.5" stroke-linecap="round"/>
</svg>
