<svg width="28" height="28" viewBox="0 0 28 28" fill="none" xmlns="http://www.w3.org/2000/svg">
<path d="M24.5007 8.74967L19.834 11.083M19.834 11.083L19.2507 11.3747L14.0007 13.9997M19.834 11.083V15.1663M19.834 11.083L8.75065 5.24967M14.0007 13.9997L3.50065 8.74967M14.0007 13.9997V25.083M18.175 3.94534L20.5083 5.17034C23.0178 6.48751 24.2732 7.14551 24.9708 8.32967C25.6673 9.51267 25.6673 10.9862 25.6673 13.932V14.0685C25.6673 17.0132 25.6673 18.4867 24.9708 19.6697C24.2732 20.8538 23.0178 21.513 20.5083 22.8302L18.175 24.054C16.1263 25.1285 15.102 25.6663 14.0007 25.6663C12.8993 25.6663 11.875 25.1297 9.82632 24.054L7.49298 22.829C4.98348 21.5118 3.72815 20.8538 3.03048 19.6697C2.33398 18.4867 2.33398 17.0132 2.33398 14.0697V13.9332C2.33398 10.9873 2.33398 9.51384 3.03048 8.33084C3.72815 7.14667 4.98348 6.48751 7.49298 5.17151L9.82632 3.94651C11.875 2.87084 12.8993 2.33301 14.0007 2.33301C15.102 2.33301 16.1263 2.86967 18.175 3.94534Z" stroke="#6A6E7A" stroke-width="1.5" stroke-linecap="round"/>
</svg>
