<svg width="28" height="28" viewBox="0 0 28 28" fill="none" xmlns="http://www.w3.org/2000/svg">
<path d="M18.175 3.94559L20.5083 5.17059C23.0178 6.48775 24.2732 7.14575 24.9708 8.32992C25.6673 9.51292 25.6673 10.9864 25.6673 13.9323V14.0688C25.6673 17.0134 25.6673 18.4869 24.9708 19.6699C24.2732 20.8541 23.0178 21.5133 20.5083 22.8304L18.175 24.0543C16.1263 25.1288 15.102 25.6666 14.0007 25.6666C12.8993 25.6666 11.875 25.1299 9.82632 24.0543L7.49298 22.8293C4.98348 21.5121 3.72815 20.8541 3.03048 19.6699C2.33398 18.4869 2.33398 17.0134 2.33398 14.0699V13.9334C2.33398 10.9876 2.33398 9.51409 3.03048 8.33109C3.72815 7.14692 4.98348 6.48775 7.49298 5.17175L9.82632 3.94675C11.875 2.87109 12.8993 2.33325 14.0007 2.33325C15.102 2.33325 16.1263 2.86992 18.175 3.94559ZM24.5007 8.74992L19.834 11.0833L24.5007 8.74992ZM14.0007 13.9999L3.50065 8.74992L14.0007 13.9999ZM14.0007 13.9999V25.0833V13.9999ZM14.0007 13.9999L19.2507 11.3749L19.834 11.0833M19.834 11.0833V15.1666V11.0833ZM19.834 11.0833L8.75065 5.24992L19.834 11.0833Z" fill="#06844B"/>
<path d="M24.5007 8.74992L19.834 11.0833M19.834 11.0833L19.2507 11.3749L14.0007 13.9999M19.834 11.0833V15.1666M19.834 11.0833L8.75065 5.24992M14.0007 13.9999L3.50065 8.74992M14.0007 13.9999V25.0833M18.175 3.94559L20.5083 5.17059C23.0178 6.48775 24.2732 7.14575 24.9708 8.32992C25.6673 9.51292 25.6673 10.9864 25.6673 13.9323V14.0688C25.6673 17.0134 25.6673 18.4869 24.9708 19.6699C24.2732 20.8541 23.0178 21.5133 20.5083 22.8304L18.175 24.0543C16.1263 25.1288 15.102 25.6666 14.0007 25.6666C12.8993 25.6666 11.875 25.1299 9.82632 24.0543L7.49298 22.8293C4.98348 21.5121 3.72815 20.8541 3.03048 19.6699C2.33398 18.4869 2.33398 17.0134 2.33398 14.0699V13.9334C2.33398 10.9876 2.33398 9.51409 3.03048 8.33109C3.72815 7.14692 4.98348 6.48775 7.49298 5.17175L9.82632 3.94675C11.875 2.87109 12.8993 2.33325 14.0007 2.33325C15.102 2.33325 16.1263 2.86992 18.175 3.94559Z" stroke="#E6F3ED" stroke-width="1.5" stroke-linecap="round"/>
</svg>
