<svg width="18" height="18" viewBox="0 0 18 18" fill="none" xmlns="http://www.w3.org/2000/svg">
<path d="M7.33534 2.91746C7.75834 2.55746 7.96984 2.37746 8.19034 2.27171C8.44289 2.15094 8.71928 2.08826 8.99921 2.08826C9.27915 2.08826 9.55554 2.15094 9.80809 2.27171C10.0293 2.37671 10.2408 2.55671 10.6631 2.91746C10.8318 3.06146 10.9158 3.13271 11.0058 3.19271C11.2119 3.33084 11.4434 3.42669 11.6868 3.47471C11.7926 3.49571 11.9028 3.50471 12.1233 3.52271C12.6776 3.56621 12.9543 3.58871 13.1853 3.67046C13.4492 3.76357 13.6888 3.91455 13.8868 4.11233C14.0847 4.31011 14.2358 4.54967 14.3291 4.81346C14.4108 5.04521 14.4326 5.32196 14.4768 5.87546C14.4941 6.09596 14.5031 6.2062 14.5241 6.3127C14.5721 6.5557 14.6681 6.78746 14.8061 6.99296C14.8661 7.08296 14.9381 7.16696 15.0813 7.33571C15.4413 7.75871 15.6221 7.9702 15.7278 8.1907C15.8486 8.44325 15.9113 8.71964 15.9113 8.99958C15.9113 9.27952 15.8486 9.55591 15.7278 9.80845C15.6228 10.029 15.4421 10.2405 15.0813 10.6635C14.983 10.7722 14.8911 10.8867 14.8061 11.0062C14.668 11.2121 14.5722 11.4433 14.5241 11.6865C14.5031 11.793 14.4941 11.9032 14.4768 12.1237C14.4326 12.6772 14.4108 12.9547 14.3291 13.1857C14.2358 13.4495 14.0847 13.6891 13.8868 13.8868C13.6888 14.0846 13.4492 14.2356 13.1853 14.3287C12.9543 14.4112 12.6776 14.433 12.1233 14.4765C11.9028 14.4945 11.7933 14.5035 11.6868 14.5245C11.4434 14.5725 11.2119 14.6683 11.0058 14.8065C10.8866 14.8914 10.7724 14.9834 10.6638 15.0817C10.2408 15.4417 10.0293 15.6217 9.80884 15.7275C9.55629 15.8482 9.2799 15.9109 8.99996 15.9109C8.72003 15.9109 8.44364 15.8482 8.19109 15.7275C7.96984 15.6225 7.75834 15.4425 7.33609 15.0817C7.22732 14.9833 7.11287 14.8914 6.99334 14.8065C6.78723 14.6683 6.55576 14.5725 6.31234 14.5245C6.1679 14.4999 6.02215 14.4839 5.87584 14.4765C5.32159 14.433 5.04484 14.4105 4.81384 14.3287C4.54999 14.2356 4.31033 14.0846 4.11242 13.8868C3.91451 13.6891 3.76337 13.4495 3.67009 13.1857C3.58834 12.9547 3.56659 12.6772 3.52234 12.1237C3.51516 11.9772 3.49938 11.8312 3.47509 11.6865C3.42698 11.4433 3.33113 11.2121 3.19309 11.0062C3.13309 10.9162 3.06109 10.8322 2.91784 10.6635C2.55784 10.2405 2.37709 10.029 2.27134 9.80845C2.15057 9.55591 2.08789 9.27952 2.08789 8.99958C2.08789 8.71964 2.15057 8.44325 2.27134 8.1907C2.37709 7.9702 2.55709 7.75871 2.91784 7.33571C3.06109 7.16696 3.13309 7.08296 3.19309 6.99296C3.33113 6.78707 3.42698 6.55587 3.47509 6.3127C3.49609 6.2062 3.50509 6.09596 3.52234 5.87546C3.56659 5.32196 3.58834 5.04521 3.67009 4.81346C3.76345 4.54959 3.9147 4.30998 4.11275 4.11219C4.31079 3.91441 4.5506 3.76347 4.81459 3.67046C5.04559 3.58871 5.32234 3.56621 5.87659 3.52271C6.09709 3.50471 6.20659 3.49571 6.31309 3.47471C6.55651 3.42669 6.78798 3.33084 6.99409 3.19271C7.08409 3.13271 7.16734 3.06146 7.33534 2.91746Z" stroke="#181725" stroke-width="1.5"/>
<path d="M6.75 11.25L11.25 6.75" stroke="#181725" stroke-width="1.5" stroke-linecap="round"/>
<path d="M11.625 10.875C11.625 11.0739 11.546 11.2647 11.4053 11.4053C11.2647 11.546 11.0739 11.625 10.875 11.625C10.6761 11.625 10.4853 11.546 10.3447 11.4053C10.204 11.2647 10.125 11.0739 10.125 10.875C10.125 10.6761 10.204 10.4853 10.3447 10.3447C10.4853 10.204 10.6761 10.125 10.875 10.125C11.0739 10.125 11.2647 10.204 11.4053 10.3447C11.546 10.4853 11.625 10.6761 11.625 10.875ZM7.875 7.125C7.875 7.32391 7.79598 7.51468 7.65533 7.65533C7.51468 7.79598 7.32391 7.875 7.125 7.875C6.92609 7.875 6.73532 7.79598 6.59467 7.65533C6.45402 7.51468 6.375 7.32391 6.375 7.125C6.375 6.92609 6.45402 6.73532 6.59467 6.59467C6.73532 6.45402 6.92609 6.375 7.125 6.375C7.32391 6.375 7.51468 6.45402 7.65533 6.59467C7.79598 6.73532 7.875 6.92609 7.875 7.125Z" fill="#181725"/>
</svg>
