<svg width="13" height="14" viewBox="0 0 13 14" fill="none" xmlns="http://www.w3.org/2000/svg">
<path d="M10.26 3.4875C9.62579 2.66363 8.7652 2.04248 7.78351 1.70004C6.80181 1.35761 5.7416 1.30873 4.73257 1.5594C3.72353 1.81006 2.80944 2.3494 2.10212 3.11143C1.39481 3.87345 0.924937 4.82512 0.75 5.85M10.5225 0.75V3.75H7.5225M1.7835 10.0125C2.41753 10.8367 3.27811 11.4581 4.25988 11.8008C5.24166 12.1434 6.30203 12.1924 7.3112 11.9417C8.32038 11.691 9.23456 11.1515 9.94186 10.3892C10.6492 9.627 11.1189 8.67508 11.2935 7.65M1.52175 12.75V9.75H4.52175" stroke="#181725" stroke-width="1.5" stroke-linecap="round" stroke-linejoin="round"/>
</svg>
