<svg width="17" height="17" viewBox="0 0 17 17" fill="none" xmlns="http://www.w3.org/2000/svg">
<path d="M6.5423 0.0108865C6.93869 -0.0358274 7.33809 0.0688828 7.66057 0.304059C7.98305 0.539236 8.20481 0.887526 8.28147 1.27922L8.3023 1.41839L8.30647 1.50505V7.33839C8.3065 7.5425 8.38143 7.7395 8.51707 7.89203C8.6527 8.04456 8.8396 8.142 9.0423 8.16589L9.1398 8.17172H14.8065C15.2485 8.17172 15.6724 8.34731 15.985 8.65987C16.2975 8.97244 16.4731 9.39636 16.4731 9.83839C16.4731 9.90178 16.4658 9.96497 16.4515 10.0267C16.118 11.4656 15.408 12.79 14.3944 13.8643C13.3807 14.9385 12.0997 15.7241 10.6826 16.1405C9.26547 16.5569 7.76314 16.5891 6.32946 16.234C4.89577 15.8788 3.58224 15.149 2.52339 14.1192C1.46453 13.0894 0.6984 11.7967 0.303447 10.3735C-0.0915056 8.95023 -0.101087 7.44758 0.275685 6.01942C0.652457 4.59126 1.40204 3.2889 2.44768 2.24571C3.49332 1.20251 4.79743 0.45598 6.22647 0.0825531L6.45147 0.0267199L6.5423 0.0108865Z" fill="#05733F"/>
<path d="M9.97314 1.08925V5.67259C9.97314 5.8936 10.0609 6.10556 10.2172 6.26184C10.3735 6.41812 10.5855 6.50592 10.8065 6.50592H15.3898C15.523 6.50588 15.6543 6.47392 15.7726 6.4127C15.8909 6.35149 15.9928 6.26281 16.0697 6.1541C16.1467 6.04539 16.1965 5.91981 16.2149 5.78789C16.2333 5.65598 16.2199 5.52156 16.1756 5.39592C15.7618 4.22037 15.0895 3.15261 14.2083 2.27128C13.3271 1.38995 12.2595 0.717495 11.084 0.303421C10.9583 0.259032 10.8238 0.245443 10.6918 0.263794C10.5597 0.282145 10.434 0.331899 10.3252 0.408882C10.2164 0.485864 10.1276 0.587828 10.0664 0.706215C10.0051 0.824602 9.97313 0.955956 9.97314 1.08925Z" fill="#05733F"/>
</svg>
