<svg width="35" height="35" viewBox="0 0 35 35" fill="none" xmlns="http://www.w3.org/2000/svg">
<path d="M29.1649 18.958C29.1649 26.2495 24.0608 29.8953 17.9943 32.0098C17.6766 32.1174 17.3315 32.1123 17.0172 31.9952C10.9361 29.8953 5.83203 26.2495 5.83203 18.958V8.74988C5.83203 8.36311 5.98567 7.99219 6.25916 7.7187C6.53264 7.44522 6.90357 7.29158 7.29033 7.29158C10.2069 7.29158 13.8527 5.54161 16.3901 3.325C16.6991 3.06104 17.0921 2.91602 17.4984 2.91602C17.9048 2.91602 18.2978 3.06104 18.6068 3.325C21.1588 5.5562 24.79 7.29158 27.7066 7.29158C28.0933 7.29158 28.4643 7.44522 28.7377 7.7187C29.0112 7.99219 29.1649 8.36311 29.1649 8.74988V18.958Z" stroke="white" stroke-width="2.9166" stroke-linecap="round" stroke-linejoin="round"/>
</svg>
