<svg width="13" height="14" viewBox="0 0 13 14" fill="none" xmlns="http://www.w3.org/2000/svg">
<path d="M11.75 5.94262V3.51928C11.75 2.96662 11.328 2.50528 10.7813 2.42328C10.1473 2.32862 9.328 2.17262 8.72933 1.94195C8.12467 1.70928 7.398 1.27062 6.888 0.938617C6.69799 0.815506 6.47641 0.75 6.25 0.75C6.02359 0.75 5.80201 0.815506 5.612 0.938617C5.10267 1.27062 4.37533 1.70928 3.77067 1.94195C3.17133 2.17262 2.35267 2.32862 1.71867 2.42328C1.172 2.50528 0.75 2.96662 0.75 3.51928V5.94262C0.749911 7.16671 1.08253 8.36781 1.71228 9.41748C2.34204 10.4671 3.24525 11.3259 4.32533 11.902L4.47867 11.984L5.78667 12.6146C5.93118 12.6843 6.08956 12.7205 6.25 12.7205C6.41044 12.7205 6.56882 12.6843 6.71333 12.6146L8.02067 11.984L8.174 11.902C9.25421 11.326 10.1576 10.4673 10.7874 9.4176C11.4173 8.36792 11.75 7.16678 11.75 5.94262Z" stroke="#212121" stroke-width="1.5" stroke-linecap="round" stroke-linejoin="round"/>
</svg>
