<svg width="14" height="14" viewBox="0 0 14 14" fill="none" xmlns="http://www.w3.org/2000/svg">
<g clip-path="url(#clip0_27_45352)">
<path d="M9.02486 7.51807L9.90847 12.4908C9.91836 12.5493 9.91015 12.6095 9.88492 12.6633C9.85969 12.717 9.81865 12.7618 9.76728 12.7916C9.71592 12.8214 9.65668 12.8348 9.59749 12.83C9.53829 12.8253 9.48197 12.8025 9.43604 12.7649L7.34805 11.1977C7.24725 11.1224 7.1248 11.0817 6.99898 11.0817C6.87316 11.0817 6.75071 11.1224 6.64991 11.1977L4.55842 12.7643C4.51253 12.8019 4.45627 12.8246 4.39715 12.8294C4.33803 12.8341 4.27886 12.8208 4.22753 12.791C4.1762 12.7613 4.13515 12.7167 4.10986 12.663C4.08457 12.6094 4.07625 12.5493 4.086 12.4908L4.96902 7.51807" stroke="#0A0A0A" stroke-width="1.16648" stroke-linecap="round" stroke-linejoin="round"/>
<path d="M6.99943 8.16537C8.93211 8.16537 10.4989 6.59862 10.4989 4.66593C10.4989 2.73325 8.93211 1.1665 6.99943 1.1665C5.06675 1.1665 3.5 2.73325 3.5 4.66593C3.5 6.59862 5.06675 8.16537 6.99943 8.16537Z" stroke="#0A0A0A" stroke-width="1.16648" stroke-linecap="round" stroke-linejoin="round"/>
</g>
<defs>
<clipPath id="clip0_27_45352">
<rect width="13.9977" height="13.9977" fill="white"/>
</clipPath>
</defs>
</svg>
