<svg width="16" height="16" viewBox="0 0 16 16" fill="none" xmlns="http://www.w3.org/2000/svg">
<g clip-path="url(#clip0_193_2436)">
<path d="M7.0036 8.99591L10.8175 5.18202M14.7181 2.85559L11.4991 13.3182C11.2103 14.2563 11.0663 14.7254 10.8168 14.8804C10.7105 14.9468 10.59 14.9869 10.4651 14.9973C10.3403 15.0077 10.2148 14.9881 10.099 14.9403C9.82825 14.8277 9.60788 14.3894 9.16872 13.511L7.13031 9.43271C7.08863 9.33822 7.03775 9.24807 6.97841 9.16355C6.93747 9.11021 6.88986 9.06233 6.83674 9.0211C6.75475 8.96415 6.66752 8.91514 6.57624 8.87471L2.48918 6.83004C1.61164 6.39088 1.17248 6.1713 1.05993 5.90057C1.01193 5.7847 0.992308 5.65903 1.00271 5.53404C1.01312 5.40905 1.05324 5.28836 1.11975 5.18202C1.27479 4.93332 1.74386 4.78851 2.68201 4.49968L13.1456 1.28077C13.883 1.05332 14.2514 0.939991 14.5009 1.03207C14.608 1.07142 14.7053 1.13362 14.7861 1.21435C14.8668 1.29507 14.929 1.39239 14.9684 1.49956C15.0596 1.74826 14.9463 2.11658 14.7197 2.85323L14.7181 2.85559Z" stroke="#181725" stroke-width="1.5" stroke-linecap="round" stroke-linejoin="round"/>
</g>
<defs>
<clipPath id="clip0_193_2436">
<rect width="16" height="16" fill="white"/>
</clipPath>
</defs>
</svg>
