<svg width="28" height="28" viewBox="0 0 28 28" fill="none" xmlns="http://www.w3.org/2000/svg">
<path d="M14 17.5C15.933 17.5 17.5 15.933 17.5 14C17.5 12.067 15.933 10.5 14 10.5C12.067 10.5 10.5 12.067 10.5 14C10.5 15.933 12.067 17.5 14 17.5Z" stroke="#181725" stroke-width="1.5"/>
<path d="M16.0587 2.51065C15.6305 2.33331 15.0869 2.33331 13.9995 2.33331C12.9122 2.33331 12.3685 2.33331 11.9404 2.51065C11.6571 2.62791 11.3997 2.79986 11.1829 3.01666C10.9661 3.23346 10.7941 3.49086 10.6769 3.77415C10.5696 4.03431 10.5264 4.33881 10.51 4.78098C10.5025 5.10056 10.4139 5.413 10.2527 5.68906C10.0915 5.96512 9.86297 6.19579 9.58838 6.35948C9.30932 6.51555 8.99523 6.59827 8.6755 6.5999C8.35577 6.60153 8.04085 6.52202 7.76022 6.36881C7.36822 6.16115 7.08472 6.04681 6.80355 6.00948C6.19025 5.92883 5.57003 6.095 5.07922 6.47148C4.71288 6.75498 4.43988 7.22515 3.89622 8.16665C3.35255 9.10815 3.07955 9.57831 3.02005 10.0391C2.97996 10.343 3.00012 10.6518 3.07939 10.9479C3.15866 11.2439 3.29549 11.5215 3.48205 11.7646C3.65472 11.9886 3.89622 12.1765 4.27072 12.4121C4.82255 12.7586 5.17722 13.349 5.17722 14C5.17722 14.651 4.82255 15.2413 4.27072 15.5866C3.89622 15.8235 3.65355 16.0113 3.48205 16.2353C3.29549 16.4785 3.15866 16.756 3.07939 17.0521C3.00012 17.3482 2.97996 17.657 3.02005 17.9608C3.08072 18.4205 3.35255 18.8918 3.89505 19.8333C4.43988 20.7748 4.71172 21.245 5.07922 21.5285C5.32239 21.715 5.59994 21.8519 5.89601 21.9311C6.19207 22.0104 6.50085 22.0306 6.80472 21.9905C7.08472 21.9531 7.36822 21.8388 7.76022 21.6311C8.04085 21.4779 8.35577 21.3984 8.6755 21.4001C8.99523 21.4017 9.30932 21.4844 9.58838 21.6405C10.1519 21.9671 10.4867 22.568 10.51 23.219C10.5264 23.6623 10.5684 23.9656 10.6769 24.2258C10.7941 24.5091 10.9661 24.7665 11.1829 24.9833C11.3997 25.2001 11.6571 25.372 11.9404 25.4893C12.3685 25.6666 12.9122 25.6666 13.9995 25.6666C15.0869 25.6666 15.6305 25.6666 16.0587 25.4893C16.342 25.372 16.5994 25.2001 16.8162 24.9833C17.033 24.7665 17.205 24.5091 17.3222 24.2258C17.4295 23.9656 17.4727 23.6623 17.489 23.219C17.5124 22.568 17.8472 21.966 18.4107 21.6405C18.6898 21.4844 19.0039 21.4017 19.3236 21.4001C19.6433 21.3984 19.9582 21.4779 20.2389 21.6311C20.6309 21.8388 20.9144 21.9531 21.1944 21.9905C21.4982 22.0306 21.807 22.0104 22.1031 21.9311C22.3992 21.8519 22.6767 21.715 22.9199 21.5285C23.2874 21.2461 23.5592 20.7748 24.1029 19.8333C24.6465 18.8918 24.9195 18.4216 24.979 17.9608C25.0191 17.657 24.999 17.3482 24.9197 17.0521C24.8404 16.756 24.7036 16.4785 24.517 16.2353C24.3444 16.0113 24.1029 15.8235 23.7284 15.5878C23.4553 15.4214 23.2289 15.1885 23.0704 14.9108C22.9118 14.6331 22.8263 14.3197 22.8219 14C22.8219 13.349 23.1766 12.7586 23.7284 12.4133C24.1029 12.1765 24.3455 11.9886 24.517 11.7646C24.7036 11.5215 24.8404 11.2439 24.9197 10.9479C24.999 10.6518 25.0191 10.343 24.979 10.0391C24.9184 9.57948 24.6465 9.10815 24.104 8.16665C23.5592 7.22515 23.2874 6.75498 22.9199 6.47148C22.6767 6.28492 22.3992 6.1481 22.1031 6.06882C21.807 5.98955 21.4982 5.96939 21.1944 6.00948C20.9144 6.04681 20.6309 6.16115 20.2377 6.36881C19.9572 6.52181 19.6425 6.60121 19.323 6.59958C19.0035 6.59794 18.6896 6.51534 18.4107 6.35948C18.1361 6.19579 17.9076 5.96512 17.7464 5.68906C17.5852 5.413 17.4966 5.10056 17.489 4.78098C17.4727 4.33765 17.4307 4.03431 17.3222 3.77415C17.205 3.49086 17.033 3.23346 16.8162 3.01666C16.5994 2.79986 16.342 2.62791 16.0587 2.51065Z" stroke="#181725" stroke-width="1.5"/>
</svg>
