<svg width="18" height="18" viewBox="0 0 18 18" fill="none" xmlns="http://www.w3.org/2000/svg">
<path d="M9 11.25C10.2426 11.25 11.25 10.2426 11.25 9C11.25 7.75736 10.2426 6.75 9 6.75C7.75736 6.75 6.75 7.75736 6.75 9C6.75 10.2426 7.75736 11.25 9 11.25Z" stroke="#181725" stroke-width="1.5"/>
<path d="M10.3226 1.614C10.0474 1.5 9.69787 1.5 8.99887 1.5C8.29987 1.5 7.95037 1.5 7.67512 1.614C7.49301 1.68938 7.32754 1.79992 7.18817 1.93929C7.0488 2.07866 6.93826 2.24414 6.86287 2.42625C6.79387 2.5935 6.76612 2.78925 6.75562 3.0735C6.75074 3.27895 6.69383 3.4798 6.5902 3.65727C6.48658 3.83473 6.33964 3.98302 6.16312 4.08825C5.98373 4.18858 5.78181 4.24175 5.57627 4.2428C5.37073 4.24385 5.16828 4.19274 4.98787 4.09425C4.73587 3.96075 4.55362 3.88725 4.37287 3.86325C3.97861 3.8114 3.5799 3.91823 3.26437 4.16025C3.02887 4.3425 2.85337 4.64475 2.50387 5.25C2.15437 5.85525 1.97887 6.1575 1.94062 6.45375C1.91485 6.64909 1.92781 6.84759 1.97877 7.03792C2.02973 7.22825 2.11769 7.40667 2.23762 7.563C2.34862 7.707 2.50387 7.82775 2.74462 7.97925C3.09937 8.202 3.32737 8.5815 3.32737 9C3.32737 9.4185 3.09937 9.798 2.74462 10.02C2.50387 10.1723 2.34787 10.293 2.23762 10.437C2.11769 10.5933 2.02973 10.7718 1.97877 10.9621C1.92781 11.1524 1.91485 11.3509 1.94062 11.5463C1.97962 11.8418 2.15437 12.1448 2.50312 12.75C2.85337 13.3553 3.02812 13.6575 3.26437 13.8398C3.4207 13.9597 3.59912 14.0476 3.78945 14.0986C3.97978 14.1496 4.17828 14.1625 4.37362 14.1368C4.55362 14.1128 4.73587 14.0393 4.98787 13.9058C5.16828 13.8073 5.37073 13.7561 5.57627 13.7572C5.78181 13.7582 5.98373 13.8114 6.16312 13.9118C6.52537 14.1218 6.74062 14.508 6.75562 14.9265C6.76612 15.2115 6.79312 15.4065 6.86287 15.5738C6.93826 15.7559 7.0488 15.9213 7.18817 16.0607C7.32754 16.2001 7.49301 16.3106 7.67512 16.386C7.95037 16.5 8.29987 16.5 8.99887 16.5C9.69787 16.5 10.0474 16.5 10.3226 16.386C10.5047 16.3106 10.6702 16.2001 10.8096 16.0607C10.949 15.9213 11.0595 15.7559 11.1349 15.5738C11.2039 15.4065 11.2316 15.2115 11.2421 14.9265C11.2571 14.508 11.4724 14.121 11.8346 13.9118C12.014 13.8114 12.2159 13.7582 12.4215 13.7572C12.627 13.7561 12.8295 13.8073 13.0099 13.9058C13.2619 14.0393 13.4441 14.1128 13.6241 14.1368C13.8195 14.1625 14.018 14.1496 14.2083 14.0986C14.3986 14.0476 14.577 13.9597 14.7334 13.8398C14.9696 13.6583 15.1444 13.3553 15.4939 12.75C15.8434 12.1448 16.0189 11.8425 16.0571 11.5463C16.0829 11.3509 16.0699 11.1524 16.019 10.9621C15.968 10.7718 15.8801 10.5933 15.7601 10.437C15.6491 10.293 15.4939 10.1723 15.2531 10.0208C15.0776 9.9138 14.932 9.76405 14.8301 9.58553C14.7282 9.40701 14.6732 9.20555 14.6704 9C14.6704 8.5815 14.8984 8.202 15.2531 7.98C15.4939 7.82775 15.6499 7.707 15.7601 7.563C15.8801 7.40667 15.968 7.22825 16.019 7.03792C16.0699 6.84759 16.0829 6.64909 16.0571 6.45375C16.0181 6.15825 15.8434 5.85525 15.4946 5.25C15.1444 4.64475 14.9696 4.3425 14.7334 4.16025C14.577 4.04032 14.3986 3.95236 14.2083 3.9014C14.018 3.85044 13.8195 3.83748 13.6241 3.86325C13.4441 3.88725 13.2619 3.96075 13.0091 4.09425C12.8288 4.19261 12.6265 4.24365 12.4211 4.2426C12.2157 4.24155 12.0139 4.18844 11.8346 4.08825C11.6581 3.98302 11.5112 3.83473 11.4075 3.65727C11.3039 3.4798 11.247 3.27895 11.2421 3.0735C11.2316 2.7885 11.2046 2.5935 11.1349 2.42625C11.0595 2.24414 10.949 2.07866 10.8096 1.93929C10.6702 1.79992 10.5047 1.68938 10.3226 1.614Z" stroke="#181725" stroke-width="1.5"/>
</svg>
