<svg width="28" height="28" viewBox="0 0 28 28" fill="none" xmlns="http://www.w3.org/2000/svg">
<path d="M6.19775 9.00031H11.3983" stroke="#6A6E7A" stroke-width="1.5" stroke-linecap="round" stroke-linejoin="round"/>
<path d="M25.6573 10.25C25.5558 7.91 25.2308 6.475 24.179 5.465C22.6565 4 20.2044 4 15.3016 4H11.4012C6.49831 4 4.04624 4 2.52377 5.465C1.0013 6.93 1 9.28625 1 14C1 18.7137 1 21.0712 2.52377 22.535C4.04754 23.9987 6.49831 24 11.4012 24H15.3016C20.2044 24 22.6565 24 24.179 22.535C25.2308 21.525 25.5571 20.09 25.6573 17.75" fill="#06844B"/>
<path d="M25.6573 10.25C25.5558 7.91 25.2308 6.475 24.179 5.465C22.6565 4 20.2044 4 15.3016 4H11.4012C6.49831 4 4.04624 4 2.52377 5.465C1.0013 6.93 1 9.28625 1 14C1 18.7137 1 21.0712 2.52377 22.535C4.04754 23.9987 6.49831 24 11.4012 24H15.3016C20.2044 24 22.6565 24 24.179 22.535C25.2308 21.525 25.5571 20.09 25.6573 17.75" stroke="#E6F3ED" stroke-width="1.5"/>
<path d="M25.4827 10.2496H22.0997C19.7789 10.2496 17.8989 11.9284 17.8989 13.9996C17.8989 16.0709 19.7802 17.7496 22.0984 17.7496H25.4827C25.5919 17.7496 25.6452 17.7496 25.6907 17.7471C26.3928 17.7059 26.9518 17.2071 26.9973 16.5809C26.9999 16.5409 26.9999 16.4921 26.9999 16.3959V11.6034C26.9999 11.5071 26.9999 11.4584 26.9973 11.4184C26.9505 10.7921 26.3928 10.2934 25.6907 10.2521C25.6465 10.2496 25.5919 10.2496 25.4827 10.2496Z" fill="#06844B" stroke="#E6F3ED" stroke-width="1.5"/>
<path d="M21.7908 13.9999H21.8038" stroke="white" stroke-width="1.5" stroke-linecap="round" stroke-linejoin="round"/>
</svg>
