<svg width="14" height="14" viewBox="0 0 14 14" fill="none" xmlns="http://www.w3.org/2000/svg">
<g clip-path="url(#clip0_27_45366)">
<path d="M6.72046 1.3385C6.74602 1.28686 6.7855 1.24339 6.83445 1.213C6.88341 1.18261 6.93988 1.1665 6.9975 1.1665C7.05512 1.1665 7.11159 1.18261 7.16054 1.213C7.20949 1.24339 7.24898 1.28686 7.27453 1.3385L8.62182 4.06747C8.71057 4.24709 8.84159 4.40249 9.00362 4.52033C9.16565 4.63817 9.35385 4.71493 9.55208 4.74403L12.5651 5.18495C12.6222 5.19323 12.6758 5.21731 12.7199 5.25448C12.7641 5.29164 12.7969 5.34042 12.8147 5.39527C12.8326 5.45013 12.8347 5.50889 12.8209 5.5649C12.8071 5.62091 12.7779 5.67193 12.7366 5.7122L10.5576 7.83402C10.4139 7.97406 10.3064 8.14692 10.2443 8.33773C10.1822 8.52853 10.1674 8.73156 10.2012 8.92935L10.7156 11.9272C10.7257 11.9843 10.7196 12.043 10.6979 12.0967C10.6761 12.1505 10.6398 12.197 10.5929 12.2311C10.546 12.2651 10.4905 12.2853 10.4327 12.2893C10.3749 12.2933 10.3171 12.281 10.266 12.2538L7.57257 10.8377C7.3951 10.7445 7.19765 10.6958 6.9972 10.6958C6.79676 10.6958 6.59931 10.7445 6.42184 10.8377L3.72903 12.2538C3.6779 12.2809 3.62019 12.293 3.56249 12.2889C3.50478 12.2848 3.44938 12.2646 3.40259 12.2306C3.3558 12.1966 3.3195 12.1501 3.29781 12.0965C3.27613 12.0428 3.26994 11.9842 3.27993 11.9272L3.79377 8.92993C3.82771 8.73205 3.81301 8.52889 3.75092 8.33797C3.68884 8.14704 3.58124 7.97409 3.43741 7.83402L1.25843 5.71279C1.21678 5.67256 1.18727 5.62145 1.17326 5.56527C1.15924 5.50909 1.16128 5.45011 1.17916 5.39503C1.19703 5.33996 1.23001 5.29101 1.27434 5.25377C1.31867 5.21652 1.37257 5.19248 1.4299 5.18437L4.44233 4.74403C4.64078 4.71516 4.82924 4.63849 4.9915 4.52064C5.15375 4.40278 5.28494 4.24727 5.37376 4.06747L6.72046 1.3385Z" stroke="#0A0A0A" stroke-width="1.16648" stroke-linecap="round" stroke-linejoin="round"/>
</g>
<defs>
<clipPath id="clip0_27_45366">
<rect width="13.9977" height="13.9977" fill="white"/>
</clipPath>
</defs>
</svg>
