<svg width="28" height="28" viewBox="0 0 28 28" fill="none" xmlns="http://www.w3.org/2000/svg">
<path d="M14.2195 2.96888L17.1641 8.36822C17.4158 8.82975 17.8617 9.15367 18.3784 9.25043L24.4234 10.3825C24.6179 10.4189 24.695 10.6561 24.559 10.7999L20.3339 15.2689C19.9727 15.6509 19.8025 16.1751 19.8701 16.6964L20.6615 22.7954C20.687 22.9916 20.4851 23.1382 20.3064 23.0534L14.7505 20.416C14.2755 20.1906 13.7245 20.1906 13.2495 20.416L7.69364 23.0534C7.51486 23.1382 7.31304 22.9916 7.33851 22.7954L8.1299 16.6964C8.19755 16.1751 8.02725 15.6509 7.6661 15.2689L3.44096 10.7999C3.30501 10.6561 3.3821 10.4189 3.57661 10.3825L9.62163 9.25043C10.1383 9.15367 10.5842 8.82975 10.8359 8.36822L13.7805 2.96888C13.8753 2.79515 14.1247 2.79515 14.2195 2.96888Z" stroke="#181725" stroke-width="1.5"/>
</svg>
