<svg width="35" height="35" viewBox="0 0 35 35" fill="none" xmlns="http://www.w3.org/2000/svg">
<path d="M4.375 20.4163H8.74991C9.52344 20.4163 10.2653 20.7236 10.8123 21.2706C11.3592 21.8175 11.6665 22.5594 11.6665 23.3329V27.7078C11.6665 28.4814 11.3592 29.2232 10.8123 29.7702C10.2653 30.3172 9.52344 30.6244 8.74991 30.6244H7.2916C6.51807 30.6244 5.77622 30.3172 5.22925 29.7702C4.68228 29.2232 4.375 28.4814 4.375 27.7078V17.4997C4.375 14.0188 5.75778 10.6805 8.21914 8.21914C10.6805 5.75778 14.0188 4.375 17.4997 4.375C20.9806 4.375 24.3189 5.75778 26.7803 8.21914C29.2417 10.6805 30.6244 14.0188 30.6244 17.4997V27.7078C30.6244 28.4814 30.3172 29.2232 29.7702 29.7702C29.2232 30.3172 28.4814 30.6244 27.7078 30.6244H26.2495C25.476 30.6244 24.7342 30.3172 24.1872 29.7702C23.6402 29.2232 23.3329 28.4814 23.3329 27.7078V23.3329C23.3329 22.5594 23.6402 21.8175 24.1872 21.2706C24.7342 20.7236 25.476 20.4163 26.2495 20.4163H30.6244" stroke="white" stroke-width="2.9166" stroke-linecap="round" stroke-linejoin="round"/>
</svg>
