<svg width="15" height="19" viewBox="0 0 15 19" fill="none" xmlns="http://www.w3.org/2000/svg">
<path d="M14.1667 1.66667C14.3877 1.66667 14.5996 1.57887 14.7559 1.42259C14.9122 1.26631 15 1.05435 15 0.833333C15 0.61232 14.9122 0.400358 14.7559 0.244078C14.5996 0.0877973 14.3877 0 14.1667 0H0.833333C0.61232 0 0.400358 0.0877973 0.244078 0.244078C0.0877973 0.400358 0 0.61232 0 0.833333C0 1.05435 0.0877973 1.26631 0.244078 1.42259C0.400358 1.57887 0.61232 1.66667 0.833333 1.66667H1.7075C1.82917 3.19667 2.32667 6.45833 4.36917 8.33333C2.215 10.4258 1.77667 14.7783 1.68917 16.6667H0.833333C0.61232 16.6667 0.400358 16.7545 0.244078 16.9107C0.0877973 17.067 0 17.279 0 17.5C0 17.721 0.0877973 17.933 0.244078 18.0893C0.400358 18.2455 0.61232 18.3333 0.833333 18.3333H14.1667C14.3877 18.3333 14.5996 18.2455 14.7559 18.0893C14.9122 17.933 15 17.721 15 17.5C15 17.279 14.9122 17.067 14.7559 16.9107C14.5996 16.7545 14.3877 16.6667 14.1667 16.6667H13.3108C13.2233 14.78 12.785 10.4275 10.6308 8.33333C12.6733 6.45667 13.1708 3.195 13.2925 1.66667H14.1667ZM8.81667 7.605C8.68428 7.67852 8.57443 7.78673 8.49892 7.918C8.42341 8.04926 8.38509 8.19862 8.38809 8.35003C8.39109 8.50143 8.43529 8.64916 8.51594 8.77733C8.59659 8.9055 8.71064 9.00928 8.84583 9.0775C10.8767 10.1008 11.5125 14.3367 11.6417 16.6667H3.35833C3.48417 14.3333 4.12333 10.1008 6.15417 9.0775C6.28936 9.00928 6.40341 8.9055 6.48406 8.77733C6.56471 8.64916 6.60891 8.50143 6.61191 8.35003C6.61491 8.19862 6.57659 8.04926 6.50108 7.918C6.42557 7.78673 6.31572 7.67852 6.18333 7.605C4.0675 6.43083 3.5225 3.20333 3.38167 1.66667H11.6183C11.4775 3.20333 10.9325 6.43083 8.81667 7.605ZM7.5 10C7.5 10 10 12 10 13V15.8333H5V13C5 12 7.5 10 7.5 10Z" fill="#F54A00"/>
</svg>
