<svg width="15" height="18" viewBox="0 0 15 18" fill="none" xmlns="http://www.w3.org/2000/svg">
<path d="M5.83333 1.66667C5.59722 1.66667 5.39944 1.58667 5.24 1.42667C5.08056 1.26667 5.00056 1.06889 5 0.833333C4.99944 0.597778 5.07944 0.4 5.24 0.24C5.40056 0.08 5.59833 0 5.83333 0H9.16667C9.40278 0 9.60083 0.08 9.76083 0.24C9.92083 0.4 10.0006 0.597778 10 0.833333C9.99944 1.06889 9.91944 1.26694 9.76 1.4275C9.60056 1.58806 9.40278 1.66778 9.16667 1.66667H5.83333ZM7.5 10.8333C7.73611 10.8333 7.93417 10.7533 8.09417 10.5933C8.25417 10.4333 8.33389 10.2356 8.33333 10V6.66667C8.33333 6.43055 8.25333 6.23278 8.09333 6.07333C7.93333 5.91389 7.73556 5.83389 7.5 5.83333C7.26444 5.83278 7.06667 5.91278 6.90667 6.07333C6.74667 6.23389 6.66667 6.43167 6.66667 6.66667V10C6.66667 10.2361 6.74667 10.4342 6.90667 10.5942C7.06667 10.7542 7.26444 10.8339 7.5 10.8333ZM7.5 17.5C6.47222 17.5 5.50333 17.3022 4.59333 16.9067C3.68333 16.5111 2.88833 15.9728 2.20833 15.2917C1.52833 14.6106 0.990278 13.8153 0.594167 12.9058C0.198056 11.9964 0 11.0278 0 10C0 8.97222 0.198056 8.00333 0.594167 7.09333C0.990278 6.18333 1.52833 5.38833 2.20833 4.70833C2.88833 4.02833 3.68361 3.49028 4.59417 3.09417C5.50472 2.69806 6.47333 2.5 7.5 2.5C8.36111 2.5 9.1875 2.63889 9.97917 2.91667C10.7708 3.19444 11.5139 3.59722 12.2083 4.125L12.7917 3.54167C12.9444 3.38889 13.1389 3.3125 13.375 3.3125C13.6111 3.3125 13.8056 3.38889 13.9583 3.54167C14.1111 3.69444 14.1875 3.88889 14.1875 4.125C14.1875 4.36111 14.1111 4.55555 13.9583 4.70833L13.375 5.29167C13.9028 5.98611 14.3056 6.72917 14.5833 7.52083C14.8611 8.3125 15 9.13889 15 10C15 11.0278 14.8019 11.9967 14.4058 12.9067C14.0097 13.8167 13.4717 14.6117 12.7917 15.2917C12.1117 15.9717 11.3164 16.51 10.4058 16.9067C9.49528 17.3033 8.52667 17.5011 7.5 17.5Z" fill="#9810FA"/>
</svg>
