<svg width="17" height="17" viewBox="0 0 17 17" fill="none" xmlns="http://www.w3.org/2000/svg">
<path fill-rule="evenodd" clip-rule="evenodd" d="M8.03571 16.0714C12.4738 16.0714 16.0714 12.4738 16.0714 8.03571C16.0714 3.59771 12.4738 0 8.03571 0C3.59771 0 0 3.59771 0 8.03571C0 12.4738 3.59771 16.0714 8.03571 16.0714ZM8.92857 3.125C8.92857 2.63189 8.52884 2.23214 8.03571 2.23214C7.54259 2.23214 7.14286 2.63189 7.14286 3.125V7.8125C7.14286 8.42893 7.6425 8.92857 8.25893 8.92857H11.1607C11.6538 8.92857 12.0536 8.52884 12.0536 8.03571C12.0536 7.54259 11.6538 7.14286 11.1607 7.14286H8.92857V3.125Z" fill="#181725"/>
</svg>
