<svg width="22" height="22" viewBox="0 0 22 22" fill="none" xmlns="http://www.w3.org/2000/svg">
<path d="M17.4223 20.0001H4.60848C4.25128 19.9856 3.90045 19.9008 3.57608 19.7506C3.2517 19.6006 2.96015 19.3881 2.71809 19.1254C2.47604 18.8627 2.28824 18.5548 2.16545 18.2196C2.04266 17.8843 1.98726 17.5282 2.00246 17.1715V14.0858C2.00246 13.8812 2.08385 13.6849 2.22873 13.5403C2.37361 13.3956 2.57011 13.3143 2.77499 13.3143C2.97989 13.3143 3.17638 13.3956 3.32126 13.5403C3.46615 13.6849 3.54753 13.8812 3.54753 14.0858V17.1715C3.52095 17.4769 3.6131 17.7808 3.80488 18.0202C3.99665 18.2596 4.27336 18.4161 4.57758 18.4572H17.4223C17.7266 18.4161 18.0033 18.2596 18.1951 18.0202C18.3869 17.7808 18.4789 17.4769 18.4524 17.1715V14.0858C18.4524 13.8812 18.5337 13.6849 18.6787 13.5403C18.8235 13.3956 19.02 13.3143 19.2249 13.3143C19.4298 13.3143 19.6263 13.3956 19.7711 13.5403C19.9161 13.6849 19.9974 13.8812 19.9974 14.0858V17.1715C20.0283 17.8867 19.7751 18.5852 19.2928 19.1149C18.8105 19.6447 18.1383 19.9627 17.4223 20.0001Z" fill="#181725"/>
<path d="M15.1343 7.65745C15.0328 7.65793 14.9322 7.63816 14.8385 7.5993C14.7447 7.56044 14.6597 7.50327 14.5884 7.43116L11.0141 3.86201L7.43982 7.43116C7.29337 7.56743 7.09968 7.64161 6.89954 7.63809C6.6994 7.63456 6.50844 7.55359 6.3669 7.41226C6.22535 7.27092 6.14428 7.08023 6.14074 6.88038C6.13722 6.68053 6.21151 6.48712 6.34797 6.34087L10.4682 2.22658C10.613 2.08212 10.8093 2.00098 11.0141 2.00098C11.2188 2.00098 11.4152 2.08212 11.56 2.22658L15.6802 6.34087C15.825 6.48552 15.9061 6.68159 15.9061 6.88602C15.9061 7.09045 15.825 7.28651 15.6802 7.43116C15.609 7.50327 15.5239 7.56044 15.4301 7.5993C15.3364 7.63816 15.2358 7.65793 15.1343 7.65745Z" fill="#181725"/>
<path d="M11.0157 14.8572C10.8116 14.8545 10.6167 14.7724 10.4724 14.6283C10.328 14.4842 10.2458 14.2895 10.2432 14.0857V2.77143C10.2432 2.56684 10.3245 2.37062 10.4695 2.22595C10.6143 2.08128 10.8108 2 11.0157 2C11.2206 2 11.4171 2.08128 11.5619 2.22595C11.7069 2.37062 11.7882 2.56684 11.7882 2.77143V14.0857C11.7856 14.2895 11.7034 14.4842 11.5591 14.6283C11.4147 14.7724 11.2198 14.8545 11.0157 14.8572Z" fill="#181725"/>
</svg>
