<svg width="36" height="36" viewBox="0 0 36 36" fill="none" xmlns="http://www.w3.org/2000/svg">
<path d="M0 18V15.768C0 13.272 0.876 11.148 2.628 9.396C4.38 7.644 6.504 6.768 9 6.768C9.768 6.768 10.584 6.9 11.448 7.164C11.88 5.1 12.924 3.396 14.58 2.052C16.236 0.708 18.132 0.024 20.268 0C22.74 0 24.852 0.888 26.604 2.664C28.356 4.44 29.244 6.552 29.268 9C29.268 9.672 29.148 10.44 28.908 11.304C29.076 11.28 29.196 11.268 29.268 11.268C31.116 11.268 32.7 11.928 34.02 13.248C35.34 14.568 36 16.152 36 18V20.268C36 22.14 35.34 23.724 34.02 25.02C32.7 26.316 31.116 26.976 29.268 27H28.836C29.052 26.4 29.184 25.86 29.232 25.38C29.304 24.396 29.184 23.436 28.872 22.5C28.56 21.564 28.032 20.736 27.288 20.016L22.788 15.516C21.468 14.172 19.872 13.5 18 13.5C16.128 13.5 14.544 14.16 13.248 15.48L8.748 19.98C8.028 20.7 7.5 21.54 7.164 22.5C6.828 23.46 6.708 24.432 6.804 25.416C6.828 25.848 6.924 26.316 7.092 26.82C5.052 26.364 3.36 25.32 2.016 23.688C0.672 22.056 0 20.16 0 18ZM11.268 24.984C11.196 24.264 11.412 23.664 11.916 23.184L16.416 18.684C16.872 18.228 17.4 18 18 18C18.624 18 19.152 18.228 19.584 18.684L24.084 23.184C24.588 23.664 24.816 24.264 24.768 24.984C24.744 25.2 24.684 25.416 24.588 25.632C24.42 26.04 24.144 26.376 23.76 26.64C23.376 26.904 22.956 27.024 22.5 27H20.268V33.768C20.268 34.392 20.04 34.92 19.584 35.352C19.128 35.784 18.6 36 18 36C17.4 36 16.872 35.784 16.416 35.352C15.96 34.92 15.744 34.392 15.768 33.768V27H13.5C13.044 27 12.636 26.88 12.276 26.64C11.916 26.4 11.628 26.064 11.412 25.632C11.34 25.416 11.292 25.2 11.268 24.984Z" fill="#99A1AF"/>
</svg>
