<svg width="22" height="18" viewBox="0 0 22 18" fill="none" xmlns="http://www.w3.org/2000/svg">
<path fill-rule="evenodd" clip-rule="evenodd" d="M20.2506 5.14735C20.1905 5.14392 20.1265 5.14255 20.0587 5.14324H17.3815C15.1889 5.14324 13.3134 6.81775 13.3134 9.00038C13.3134 11.183 15.19 12.8575 17.3815 12.8575H20.0587C20.1265 12.8582 20.1909 12.8568 20.2516 12.8534C20.7023 12.8271 21.1277 12.6427 21.4485 12.3346C21.7694 12.0265 21.9639 11.6158 21.9958 11.1789C22 11.1172 22 11.0503 22 10.9886V7.01215C22 6.95044 22 6.88358 21.9958 6.82187C21.9639 6.38499 21.7694 5.97426 21.4485 5.66618C21.1277 5.35811 20.7012 5.17371 20.2506 5.14735ZM17.1472 10.029C17.7113 10.029 18.1682 9.56815 18.1682 9.00038C18.1682 8.43261 17.7113 7.97181 17.1472 7.97181C16.5821 7.97181 16.1251 8.43261 16.1251 9.00038C16.1251 9.56815 16.5821 10.029 17.1472 10.029Z" fill="#6A6E7A"/>
<path fill-rule="evenodd" clip-rule="evenodd" d="M20.0578 14.4C20.0945 14.3986 20.131 14.4056 20.1643 14.4204C20.1977 14.4352 20.227 14.4574 20.2498 14.4853C20.2726 14.5131 20.2884 14.5458 20.2957 14.5807C20.3031 14.6156 20.3019 14.6516 20.2922 14.6859C20.0801 15.4183 19.7419 16.0437 19.2001 16.5682C18.406 17.3397 17.3998 17.6801 16.1572 17.8426C14.9485 18 13.4058 18 11.4571 18H9.21783C7.26908 18 5.72536 18 4.51773 17.8426C3.27512 17.6801 2.26894 17.3386 1.47481 16.5693C0.681742 15.7989 0.329738 14.8227 0.162219 13.6173C1.26392e-07 12.4447 0 10.9481 0 9.0576V8.9424C0 7.05189 1.26392e-07 5.55429 0.162219 4.38171C0.329738 3.17623 0.681742 2.20011 1.47481 1.42971C2.26894 0.660343 3.27512 0.318857 4.51773 0.156343C5.72642 -4.59807e-08 7.26908 0 9.21783 0H11.4571C13.4058 0 14.9495 1.22615e-07 16.1572 0.157372C17.3998 0.319886 18.406 0.661371 19.2001 1.43074C19.7419 1.95737 20.0801 2.58171 20.2922 3.31406C20.3019 3.34838 20.3031 3.38444 20.2957 3.4193C20.2884 3.45417 20.2726 3.48685 20.2498 3.51471C20.227 3.54257 20.1977 3.56481 20.1643 3.57963C20.131 3.59445 20.0945 3.60143 20.0578 3.6H17.3818C14.3738 3.6 11.7232 5.904 11.7232 9C11.7232 12.096 14.3738 14.4 17.3818 14.4H20.0578ZM3.97594 4.11429C3.76505 4.11429 3.56279 4.19556 3.41366 4.34023C3.26453 4.4849 3.18075 4.68112 3.18075 4.88571C3.18075 5.09031 3.26453 5.28653 3.41366 5.4312C3.56279 5.57587 3.76505 5.65714 3.97594 5.65714H8.21695C8.42785 5.65714 8.63011 5.57587 8.77923 5.4312C8.92836 5.28653 9.01214 5.09031 9.01214 4.88571C9.01214 4.68112 8.92836 4.4849 8.77923 4.34023C8.63011 4.19556 8.42785 4.11429 8.21695 4.11429H3.97594Z" fill="#6A6E7A"/>
</svg>
