<svg width="26" height="22" viewBox="0 0 26 22" fill="none" xmlns="http://www.w3.org/2000/svg">
<path d="M6 6.3335H10.6667" stroke="#6A6E7A" stroke-width="1.5" stroke-linecap="round" stroke-linejoin="round"/>
<path d="M23.3052 7.5H20.2695C18.187 7.5 16.5 9.06683 16.5 11C16.5 12.9332 18.1882 14.5 20.2683 14.5H23.3052C23.4032 14.5 23.451 14.5 23.4918 14.4977C24.1218 14.4592 24.6235 13.9937 24.6643 13.4092C24.6667 13.3718 24.6667 13.3263 24.6667 13.2365V8.7635C24.6667 8.67367 24.6667 8.62817 24.6643 8.59083C24.6223 8.00633 24.1218 7.54083 23.4918 7.50233C23.4522 7.5 23.4032 7.5 23.3052 7.5Z" stroke="#6A6E7A" stroke-width="1.5"/>
<path d="M23.4598 7.50008C23.3688 5.31608 23.0771 3.97675 22.1333 3.03408C20.7671 1.66675 18.5668 1.66675 14.1673 1.66675H10.6673C6.26782 1.66675 4.06748 1.66675 2.70132 3.03408C1.33515 4.40141 1.33398 6.60058 1.33398 11.0001C1.33398 15.3996 1.33398 17.5999 2.70132 18.9661C4.06865 20.3322 6.26782 20.3334 10.6673 20.3334H14.1673C18.5668 20.3334 20.7671 20.3334 22.1333 18.9661C23.0771 18.0234 23.37 16.6841 23.4598 14.5001" stroke="#6A6E7A" stroke-width="1.5"/>
<path d="M19.9902 11.0001H20.0019" stroke="#6A6E7A" stroke-width="1.5" stroke-linecap="round" stroke-linejoin="round"/>
</svg>
