<svg width="14" height="11" viewBox="0 0 14 11" fill="none" xmlns="http://www.w3.org/2000/svg">
<path d="M3.08398 3.08337H5.41732" stroke="#0A0A0A" stroke-width="1.5" stroke-linecap="round" stroke-linejoin="round"/>
<path d="M11.7366 3.66663H10.2187C9.17748 3.66663 8.33398 4.45004 8.33398 5.41663C8.33398 6.38321 9.17807 7.16663 10.2182 7.16663H11.7366C11.7856 7.16663 11.8095 7.16663 11.8299 7.16546C12.1449 7.14621 12.3957 6.91346 12.4162 6.62121C12.4173 6.60254 12.4173 6.57979 12.4173 6.53488V4.29838C12.4173 4.25346 12.4173 4.23071 12.4162 4.21204C12.3952 3.91979 12.1449 3.68704 11.8299 3.66779C11.8101 3.66663 11.7856 3.66663 11.7366 3.66663Z" stroke="#0A0A0A" stroke-width="1.5"/>
<path d="M11.8129 3.66667C11.7674 2.57467 11.6216 1.905 11.1497 1.43367C10.4666 0.75 9.36642 0.75 7.16667 0.75H5.41667C3.21692 0.75 2.11675 0.75 1.43367 1.43367C0.750583 2.11733 0.75 3.21692 0.75 5.41667C0.75 7.61642 0.75 8.71658 1.43367 9.39967C2.11733 10.0828 3.21692 10.0833 5.41667 10.0833H7.16667C9.36642 10.0833 10.4666 10.0833 11.1497 9.39967C11.6216 8.92833 11.768 8.25867 11.8129 7.16667" stroke="#0A0A0A" stroke-width="1.5"/>
<path d="M10.0781 5.41663H10.0836" stroke="#0A0A0A" stroke-width="1.5" stroke-linecap="round" stroke-linejoin="round"/>
</svg>
