<svg width="20" height="20" viewBox="0 0 20 20" fill="none" xmlns="http://www.w3.org/2000/svg">
<path d="M16.25 4.58305L15.7333 12.9372C15.6017 15.0714 15.5358 16.1389 15 16.9064C14.7355 17.2857 14.3949 17.6058 14 17.8464C13.2025 18.333 12.1333 18.333 9.995 18.333C7.85333 18.333 6.7825 18.333 5.98333 17.8455C5.58824 17.6045 5.24768 17.2838 4.98333 16.9039C4.44833 16.1355 4.38333 15.0664 4.255 12.9289L3.75 4.58305M2.5 4.58305H17.5M13.38 4.58305L12.8108 3.40972C12.4333 2.62972 12.2442 2.24055 11.9183 1.99722C11.846 1.94331 11.7693 1.89538 11.6892 1.85388C11.3283 1.66638 10.895 1.66638 10.0292 1.66638C9.14083 1.66638 8.69667 1.66638 8.32917 1.86138C8.24793 1.90489 8.17044 1.95506 8.0975 2.01138C7.76833 2.26388 7.58417 2.66805 7.21583 3.47555L6.71083 4.58305M7.91667 13.7497V8.74972M12.0833 13.7497V8.74972" stroke="#6A6E7A" stroke-width="1.5" stroke-linecap="round" stroke-linejoin="round"/>
</svg>
